<svg width="91" height="60" viewBox="0 0 91 60" fill="none" xmlns="http://www.w3.org/2000/svg">
<path fill-rule="evenodd" clip-rule="evenodd" d="M13 33.0542H27.0625V27.146H13V17.9663H28.8203V12.0337H5.67578V47.5806H13V33.0542ZM35.6074 40.2563H48.4492L50.915 47.5806H58.7031L45.3975 12.0337H38.6104L25.3779 47.5806H33.166L35.6074 40.2563ZM46.4717 34.3237H37.585L42.0039 21.0181L46.4717 34.3237ZM89.0254 39.2798C90.0996 36.8221 90.6367 33.9331 90.6367 30.6128V29.0259C90.6367 25.5428 90.002 22.4748 88.7324 19.8218C87.4792 17.1525 85.6969 15.1099 83.3857 13.6938C81.0908 12.2616 78.4622 11.5454 75.5 11.5454C72.5378 11.5454 69.901 12.2616 67.5898 13.6938C65.2949 15.1099 63.5127 17.1525 62.2432 19.8218C60.9899 22.4748 60.3633 25.5509 60.3633 29.0503V30.8081C60.3796 34.2261 61.0225 37.2534 62.292 39.8901C63.5615 42.5106 65.3519 44.5288 67.6631 45.9448C69.9743 47.3608 72.6029 48.0688 75.5488 48.0688C76.4766 48.0688 77.3717 47.9956 78.2344 47.8491L83.3059 51.9227V53.9446H85.8411L85.8481 53.8881L90.4658 49.8022L84.5576 45.1636C86.4619 43.6825 87.9512 41.7212 89.0254 39.2798ZM81.2129 20.5054C82.5475 22.4422 83.2148 25.2743 83.2148 29.0015V30.7349C83.1986 34.4295 82.5312 37.2453 81.2129 39.1821C79.8945 41.1027 78.0065 42.063 75.5488 42.063C73.0423 42.063 71.1217 41.062 69.7871 39.0601C68.4525 37.0581 67.7852 34.2423 67.7852 30.6128V28.8794C67.8014 25.1847 68.4769 22.3853 69.8115 20.481C71.1462 18.5604 73.0423 17.6001 75.5 17.6001C77.974 17.6001 79.8783 18.5685 81.2129 20.5054Z" fill="#FF5C5C"/>
<path d="M24.5605 33.0542H10.498V47.5806H3.17383V12.0337H26.3184V17.9663H10.498V27.146H24.5605V33.0542ZM45.9473 40.2563H33.1055L30.6641 47.5806H22.876L36.1084 12.0337H42.8955L56.2012 47.5806H48.4131L45.9473 40.2563ZM35.083 34.3237H43.9697L39.502 21.0181L35.083 34.3237ZM88.1348 30.6128C88.1348 33.9331 87.5977 36.8221 86.5234 39.2798C85.4492 41.7212 83.96 43.6825 82.0557 45.1636L87.9639 49.8022L83.3008 53.9282L75.7324 47.8491C74.8698 47.9956 73.9746 48.0688 73.0469 48.0688C70.1009 48.0688 67.4723 47.3608 65.1611 45.9448C62.8499 44.5288 61.0596 42.5106 59.79 39.8901C58.5205 37.2534 57.8776 34.2261 57.8613 30.8081V29.0503C57.8613 25.5509 58.488 22.4748 59.7412 19.8218C61.0107 17.1525 62.793 15.1099 65.0879 13.6938C67.3991 12.2616 70.0358 11.5454 72.998 11.5454C75.9603 11.5454 78.5889 12.2616 80.8838 13.6938C83.195 15.1099 84.9772 17.1525 86.2305 19.8218C87.5 22.4748 88.1348 25.5428 88.1348 29.0259V30.6128ZM80.7129 29.0015C80.7129 25.2743 80.0456 22.4422 78.7109 20.5054C77.3763 18.5685 75.472 17.6001 72.998 17.6001C70.5404 17.6001 68.6442 18.5604 67.3096 20.481C65.9749 22.3853 65.2995 25.1847 65.2832 28.8794V30.6128C65.2832 34.2424 65.9505 37.0581 67.2852 39.0601C68.6198 41.062 70.5404 42.063 73.0469 42.063C75.5046 42.063 77.3926 41.1027 78.7109 39.1821C80.0293 37.2453 80.6966 34.4295 80.7129 30.7349V29.0015Z" fill="#DCDCDC"/>
</svg>
