<svg width="31" height="26" viewBox="0 0 31 26" fill="none" xmlns="http://www.w3.org/2000/svg">
<path d="M15.5372 0.614258C7.25276 0.614258 0.537109 7.32991 0.537109 15.6143C0.537109 19.2242 1.81302 22.5363 3.93769 25.1245C4.26548 22.4999 6.88693 20.2801 10.5628 19.2289C11.9058 20.4801 13.6404 21.2393 15.5371 21.2393C17.3891 21.2393 19.0898 20.5183 20.4191 19.3196C24.1267 20.4627 26.6918 22.8122 26.7762 25.5431C29.1146 22.8977 30.5371 19.4231 30.5371 15.6143C30.5371 7.32991 23.8215 0.614258 15.5372 0.614258ZM15.5372 19.4629C14.5796 19.4629 13.6773 19.1999 12.8761 18.7442C10.9454 17.6456 9.61604 15.3974 9.61604 12.8017C9.61604 9.12871 12.2722 6.14037 15.5372 6.14037C18.8024 6.14037 21.4583 9.12871 21.4583 12.8017C21.4583 15.4372 20.0873 17.7132 18.1085 18.7927C17.329 19.2178 16.4592 19.4629 15.5372 19.4629Z" fill="white"/>
</svg>
