<svg width="25" height="27" viewBox="0 0 25 27" fill="none" xmlns="http://www.w3.org/2000/svg">
<path d="M22.0224 23.9285C22.0224 25.39 20.9441 26.5619 19.5993 26.5619C18.9566 26.5619 18.3402 26.2844 17.8858 25.7906C17.4314 25.2967 17.1761 24.6269 17.1761 23.9285C17.1761 22.467 18.2544 21.2952 19.5993 21.2952C20.2419 21.2952 20.8583 21.5726 21.3127 22.0665C21.7671 22.5603 22.0224 23.2301 22.0224 23.9285ZM7.48339 21.2952C6.13853 21.2952 5.06021 22.467 5.06021 23.9285C5.06021 24.6269 5.31551 25.2967 5.76995 25.7906C6.22438 26.2844 6.84072 26.5619 7.48339 26.5619C8.82825 26.5619 9.90656 25.39 9.90656 23.9285C9.90656 22.467 8.82825 21.2952 7.48339 21.2952ZM7.7257 16.858L7.68936 17.016C7.68936 17.2004 7.82263 17.3452 7.99225 17.3452H22.0224V19.9785H7.48339C6.84072 19.9785 6.22438 19.7011 5.76995 19.2072C5.31551 18.7134 5.06021 18.0436 5.06021 17.3452C5.06021 16.8844 5.16926 16.4499 5.35099 16.0812L6.99875 12.8554L2.63704 2.86185H0.213867V0.228516H4.17576L5.31465 2.86185H23.234C23.9004 2.86185 24.4456 3.45435 24.4456 4.17852C24.4456 4.40235 24.385 4.62618 24.3002 4.83685L19.9627 13.3557C19.5508 14.1589 18.7511 14.7119 17.8425 14.7119H8.81613L7.7257 16.858ZM9.30077 12.0785H11.1181V9.44518H8.16188L9.30077 12.0785ZM12.3297 9.44518V12.0785H15.9645V9.44518H12.3297ZM15.9645 8.12852V5.49518H12.3297V8.12852H15.9645ZM19.7325 9.44518H17.1761V12.0785H18.3877L19.7325 9.44518ZM21.7559 5.49518H17.1761V8.12852H20.411L21.7559 5.49518ZM6.44142 5.49518L7.58031 8.12852H11.1181V5.49518H6.44142Z" fill="black"/>
</svg>
