<svg width="219" height="36" viewBox="0 0 219 36" fill="none" xmlns="http://www.w3.org/2000/svg">
<path d="M0.0302734 26.9998V1.79981H20.3303C21.6836 1.79981 22.8386 2.27814 23.7953 3.23481C24.7519 4.19147 25.2303 5.33481 25.2303 6.66481V22.1348C25.2303 23.4648 24.7519 24.6081 23.7953 25.5648C22.8386 26.5215 21.6836 26.9998 20.3303 26.9998H0.0302734ZM5.87527 22.3448H19.3503C19.9803 22.3448 20.3419 22.3098 20.4353 22.2398C20.5286 22.1465 20.5753 21.7731 20.5753 21.1198V7.6798C20.5753 7.02647 20.5286 6.66481 20.4353 6.59481C20.3419 6.50147 19.9803 6.45481 19.3503 6.45481H5.87527C5.22194 6.45481 4.84861 6.50147 4.75527 6.59481C4.68527 6.66481 4.65027 7.02647 4.65027 7.6798V21.1198C4.65027 21.7731 4.68527 22.1465 4.75527 22.2398C4.84861 22.3098 5.22194 22.3448 5.87527 22.3448Z" fill="#02E5DA"/>
<path d="M33.8397 26.9998C32.5097 26.9998 31.3664 26.5331 30.4097 25.5998C29.4764 24.6431 29.0097 23.4998 29.0097 22.1698V14.5398H45.0397V12.5098C45.0397 11.8565 44.9931 11.4948 44.8997 11.4248C44.8297 11.3315 44.4681 11.2848 43.8147 11.2848H29.0097V6.69981H44.7947C46.1247 6.69981 47.2564 7.17814 48.1897 8.1348C49.1464 9.06814 49.6247 10.1998 49.6247 11.5298V26.9998H33.8397ZM34.8197 22.4148H45.0397V18.6698H33.5947V21.1898C33.5947 21.8431 33.6297 22.2165 33.6997 22.3098C33.7931 22.3798 34.1664 22.4148 34.8197 22.4148Z" fill="#02E5DA"/>
<path d="M64.0797 26.9998V0.0498047H68.6647V6.69981H79.8647C81.1714 6.69981 82.3031 7.17814 83.2597 8.1348C84.2164 9.06814 84.6947 10.1998 84.6947 11.5298V26.9998H80.1097V12.5098C80.1097 11.8565 80.0631 11.4948 79.9697 11.4248C79.8997 11.3315 79.5381 11.2848 78.8847 11.2848H69.8897C69.2364 11.2848 68.8631 11.3315 68.7697 11.4248C68.6997 11.4948 68.6647 11.8565 68.6647 12.5098V26.9998H64.0797Z" fill="#02E5DA"/>
<path d="M92.1836 26.9998C90.8536 26.9998 89.7103 26.5331 88.7536 25.5998C87.8203 24.6431 87.3536 23.4998 87.3536 22.1698V11.5298C87.3536 10.1998 87.8203 9.06814 88.7536 8.1348C89.7103 7.17814 90.8536 6.69981 92.1836 6.69981H103.139C104.469 6.69981 105.6 7.17814 106.534 8.1348C107.49 9.06814 107.969 10.1998 107.969 11.5298V22.1698C107.969 23.4998 107.49 24.6431 106.534 25.5998C105.6 26.5331 104.469 26.9998 103.139 26.9998H92.1836ZM93.1636 22.4148H102.159C102.812 22.4148 103.174 22.3798 103.244 22.3098C103.337 22.2165 103.384 21.8431 103.384 21.1898V12.5098C103.384 11.8565 103.337 11.4948 103.244 11.4248C103.174 11.3315 102.812 11.2848 102.159 11.2848H93.1636C92.5103 11.2848 92.137 11.3315 92.0436 11.4248C91.9736 11.4948 91.9386 11.8565 91.9386 12.5098V21.1898C91.9386 21.8431 91.9736 22.2165 92.0436 22.3098C92.137 22.3798 92.5103 22.4148 93.1636 22.4148Z" fill="#02E5DA"/>
<path d="M110.803 26.9998V6.69981H126.588C127.918 6.69981 129.05 7.17814 129.983 8.1348C130.94 9.06814 131.418 10.1998 131.418 11.5298V26.9998H126.833V12.5098C126.833 11.8565 126.787 11.4948 126.693 11.4248C126.623 11.3315 126.262 11.2848 125.608 11.2848H116.613C115.96 11.2848 115.587 11.3315 115.493 11.4248C115.423 11.4948 115.388 11.8565 115.388 12.5098V26.9998H110.803Z" fill="#02E5DA"/>
<path d="M137.874 35.0148V30.3948H149.319C149.949 30.3948 150.299 30.3481 150.369 30.2548C150.463 30.1848 150.509 29.8231 150.509 29.1698V26.9998H139.309C137.979 26.9998 136.836 26.5331 135.879 25.5998C134.946 24.6431 134.479 23.4998 134.479 22.1698V11.5298C134.479 10.1998 134.946 9.06814 135.879 8.1348C136.836 7.17814 137.979 6.69981 139.309 6.69981H150.299C151.629 6.69981 152.761 7.17814 153.694 8.1348C154.628 9.06814 155.094 10.1998 155.094 11.5298V30.1848C155.094 31.5148 154.628 32.6465 153.694 33.5798C152.761 34.5365 151.629 35.0148 150.299 35.0148H137.874ZM140.289 22.4148H149.319C149.949 22.4148 150.299 22.3798 150.369 22.3098C150.463 22.2165 150.509 21.8431 150.509 21.1898V12.5098C150.509 11.8565 150.463 11.4948 150.369 11.4248C150.299 11.3315 149.949 11.2848 149.319 11.2848H140.289C139.636 11.2848 139.263 11.3315 139.169 11.4248C139.099 11.4948 139.064 11.8565 139.064 12.5098V21.1898C139.064 21.8431 139.099 22.2165 139.169 22.3098C139.263 22.3798 139.636 22.4148 140.289 22.4148Z" fill="#02E5DA"/>
<path d="M169.244 26.9998V25.7748L176.699 16.6748L169.244 7.92481V6.69981H174.214L179.674 13.1398L185.134 6.69981H190.104V7.92481L182.649 16.6748L190.104 25.7748V26.9998H185.169L179.674 20.2798L174.214 26.9998H169.244Z" fill="#02E5DA"/>
<path d="M198.692 26.9998C197.362 26.9998 196.219 26.5331 195.262 25.5998C194.329 24.6431 193.862 23.4998 193.862 22.1698V6.62981C193.862 5.27647 194.329 4.13314 195.262 3.19981C196.219 2.26647 197.362 1.79981 198.692 1.79981H214.827V6.3848H199.672C199.019 6.3848 198.646 6.43147 198.552 6.52481C198.482 6.59481 198.447 6.95647 198.447 7.60981V10.5848C198.447 11.2381 198.482 11.6115 198.552 11.7048C198.646 11.7748 199.019 11.8098 199.672 11.8098H213.987C215.317 11.8098 216.449 12.2881 217.382 13.2448C218.339 14.1781 218.817 15.3098 218.817 16.6398V22.1698C218.817 23.4998 218.339 24.6431 217.382 25.5998C216.449 26.5331 215.317 26.9998 213.987 26.9998H198.692ZM199.672 22.4148H213.007C213.661 22.4148 214.022 22.3798 214.092 22.3098C214.186 22.2165 214.232 21.8431 214.232 21.1898V17.6548C214.232 17.0015 214.186 16.6398 214.092 16.5698C214.022 16.4765 213.661 16.4298 213.007 16.4298H198.447V21.1898C198.447 21.8431 198.482 22.2165 198.552 22.3098C198.646 22.3798 199.019 22.4148 199.672 22.4148Z" fill="#02E5DA"/>
</svg>
