<svg width="30" height="30" viewBox="0 0 30 30" fill="none" xmlns="http://www.w3.org/2000/svg">
<path d="M15 2.53516C6.71565 2.53516 0 9.25081 0 17.5352C0 21.1451 1.27592 24.4572 3.40058 27.0454C3.72837 24.4208 6.34982 22.201 10.0257 21.1498C11.3686 22.401 13.1033 23.1602 15 23.1602C16.852 23.1602 18.5527 22.4392 19.8819 21.2405C23.5896 22.3836 26.1547 24.7331 26.2391 27.464C28.5775 24.8186 30 21.344 30 17.5352C30 9.25081 23.2844 2.53516 15 2.53516ZM15 21.3838C14.0425 21.3838 13.1402 21.1208 12.339 20.6651C10.4083 19.5665 9.07893 17.3183 9.07893 14.7226C9.07893 11.0496 11.7351 8.06127 15 8.06127C18.2653 8.06127 20.9212 11.0496 20.9212 14.7226C20.9212 17.3581 19.5502 19.6341 17.5714 20.7136C16.7919 21.1387 15.9221 21.3838 15 21.3838Z" fill="white"/>
</svg>
