<svg width="25" height="26" viewBox="0 0 25 26" fill="none" xmlns="http://www.w3.org/2000/svg">
<circle cx="12.6209" cy="6.92947" r="2.73514" fill="#B59CFD"/>
<path d="M17.2048 14.9688C17.2048 17.5631 15.1523 25.6003 12.6205 25.6003C10.0886 25.6003 8.03613 17.5631 8.03613 14.9688C8.03613 12.3746 10.0886 10.2715 12.6205 10.2715C15.1523 10.2715 17.2048 12.3746 17.2048 14.9688Z" fill="#B59CFD"/>
<circle cx="4.97928" cy="3.13553" r="2.73514" fill="#B59CFD"/>
<path fill-rule="evenodd" clip-rule="evenodd" d="M9.47546 10.2497C7.69639 11.3885 6.08323 13.9396 7.7567 18.6515C6.98606 20.4392 6.02369 21.8054 4.97984 21.8054C2.44798 21.8054 0.395508 13.7682 0.395508 11.1739C0.395508 8.57964 2.44798 6.47656 4.97984 6.47656C7.20295 6.47656 9.05647 8.098 9.47546 10.2497Z" fill="#B59CFD"/>
<ellipse rx="2.72944" ry="2.74235" transform="matrix(-1 0 0 1 20.1573 3.14274)" fill="#B59CFD"/>
<path fill-rule="evenodd" clip-rule="evenodd" d="M15.6713 10.2767C17.4464 11.4186 19.0558 13.9762 17.3864 18.6998C18.1554 20.4924 19.1159 21.8624 20.1576 21.8624C22.6842 21.8624 24.7324 13.804 24.7324 11.2029C24.7324 8.60178 22.6842 6.49316 20.1576 6.49316C17.939 6.49316 16.0892 8.1191 15.6713 10.2767Z" fill="#B59CFD"/>
</svg>
