<svg width="30" height="32" viewBox="0 0 30 32" fill="none" xmlns="http://www.w3.org/2000/svg">
<circle cx="15.0689" cy="8.78373" r="3.33158" fill="white"/>
<path d="M20.6524 18.5762C20.6524 21.7362 18.1524 31.526 15.0684 31.526C11.9844 31.526 9.48438 21.7362 9.48438 18.5762C9.48438 15.4162 11.9844 12.8545 15.0684 12.8545C18.1524 12.8545 20.6524 15.4162 20.6524 18.5762Z" fill="white"/>
<circle cx="5.76127" cy="4.16264" r="3.33158" fill="white"/>
<path fill-rule="evenodd" clip-rule="evenodd" d="M11.2378 12.8287C9.07084 14.2159 7.10599 17.3232 9.14417 23.0623C8.20547 25.2398 7.03324 26.9039 5.76175 26.9039C2.67779 26.9039 0.177734 17.1141 0.177734 13.9541C0.177734 10.7941 2.67779 8.23242 5.76175 8.23242C8.46979 8.23242 10.7276 10.2076 11.2378 12.8287Z" fill="white"/>
<ellipse rx="3.32464" ry="3.34037" transform="matrix(-1 0 0 1 24.2491 4.17142)" fill="white"/>
<path fill-rule="evenodd" clip-rule="evenodd" d="M18.7849 12.8605C20.9475 14.2514 22.9083 17.3671 20.874 23.1219C21.8107 25.3051 22.9805 26.9737 24.2494 26.9737C27.3269 26.9737 29.8218 17.158 29.8218 13.9897C29.8218 10.8214 27.3269 8.25293 24.2494 8.25293C21.5473 8.25293 19.2944 10.2329 18.7849 12.8605Z" fill="white"/>
</svg>
