<svg width="413" height="680" viewBox="0 0 413 680" fill="none" xmlns="http://www.w3.org/2000/svg">
<path d="M86.3031 125.59H95.2031V123.21H92.4231V110.79H90.2431C89.3031 111.37 88.2831 111.75 86.8031 112.03V113.85H89.4831V123.21H86.3031V125.59Z" fill="#BDBDBD"/>
<path d="M85.5231 180.614H95.4431V178.134H92.2231C91.5431 178.134 90.5631 178.214 89.8231 178.294C92.5231 175.654 94.7431 172.774 94.7431 170.094C94.7431 167.334 92.8831 165.534 90.0831 165.534C88.0631 165.534 86.7431 166.334 85.3831 167.774L86.9831 169.374C87.7231 168.554 88.6231 167.854 89.7031 167.854C91.1031 167.854 91.9231 168.754 91.9231 170.254C91.9231 172.534 89.5431 175.314 85.5231 178.914V180.614Z" fill="#BDBDBD"/>
<path d="M90.1431 236.917C92.9631 236.917 95.3431 235.337 95.3431 232.617C95.3431 230.677 94.0631 229.437 92.3831 228.977V228.877C93.9631 228.257 94.8631 227.097 94.8631 225.497C94.8631 222.957 92.9231 221.557 90.0631 221.557C88.3231 221.557 86.9031 222.257 85.6231 223.377L87.1231 225.177C88.0031 224.377 88.8631 223.877 89.9231 223.857C91.1831 223.877 91.9031 224.557 91.9031 225.717C91.9031 227.037 91.0231 227.977 88.3031 227.977V230.097C91.5231 230.097 92.3831 230.997 92.3831 232.457C92.3831 233.777 91.3631 234.517 89.8631 234.517C88.5231 234.517 87.4431 233.857 86.5631 232.997L85.1831 234.857C86.2231 236.037 87.8031 236.917 90.1431 236.917Z" fill="#BDBDBD"/>
<path d="M87.9431 286.581L90.2431 282.901C90.6631 282.101 91.0631 281.281 91.4231 280.501H91.5031C91.4631 281.361 91.3831 282.701 91.3831 283.561V286.581H87.9431ZM95.8831 286.581H94.1231V277.861H90.6031L85.0831 286.821V288.821H91.3831V292.661H94.1231V288.821H95.8831V286.581Z" fill="#BDBDBD"/>
<path d="M90.1831 347.965C92.9231 347.965 95.3631 346.065 95.3631 342.765C95.3631 339.545 93.2831 338.065 90.8031 338.065C90.1231 338.065 89.6031 338.205 89.0231 338.485L89.3031 335.345H94.6831V332.885H86.7631L86.3631 340.065L87.7031 340.945C88.5631 340.385 89.0431 340.165 89.9231 340.165C91.4231 340.165 92.4231 341.125 92.4231 342.845C92.4231 344.585 91.3431 345.565 89.8031 345.565C88.4231 345.565 87.3831 344.885 86.5431 344.065L85.1831 345.945C86.2831 347.045 87.8431 347.965 90.1831 347.965Z" fill="#BDBDBD"/>
<path d="M90.9231 401.769C89.6831 401.769 88.6831 400.729 88.4031 398.029C89.1431 396.889 90.0231 396.469 90.8231 396.469C92.1031 396.469 92.9231 397.289 92.9231 399.049C92.9231 400.849 92.0231 401.769 90.9231 401.769ZM95.4031 390.309C94.5031 389.389 93.1831 388.629 91.3831 388.629C88.4031 388.629 85.6631 390.989 85.6631 396.509C85.6631 401.729 88.1631 403.989 90.9831 403.989C93.5031 403.989 95.6231 402.089 95.6231 399.049C95.6231 395.869 93.8631 394.389 91.3831 394.389C90.4231 394.389 89.1431 394.989 88.3431 395.969C88.4631 392.269 89.8631 390.989 91.5631 390.989C92.4231 390.989 93.3231 391.469 93.8431 392.069L95.4031 390.309Z" fill="#BDBDBD"/>
<path d="M88.3831 457.733H91.3631C91.6031 451.933 92.0631 448.913 95.5031 444.713V442.933H85.6631V445.393H92.3231C89.5031 449.313 88.6431 452.593 88.3831 457.733Z" fill="#BDBDBD"/>
<path d="M90.5431 515.037C93.5431 515.037 95.5231 513.317 95.5231 511.077C95.5231 509.057 94.4031 507.857 93.0431 507.117V507.017C94.0231 506.317 94.9431 505.097 94.9431 503.637C94.9431 501.277 93.2631 499.697 90.6431 499.697C88.0631 499.697 86.1831 501.217 86.1831 503.597C86.1831 505.177 87.0031 506.297 88.1431 507.117V507.217C86.7631 507.957 85.6031 509.177 85.6031 511.077C85.6031 513.397 87.7231 515.037 90.5431 515.037ZM91.4831 506.297C89.9231 505.677 88.7831 504.997 88.7831 503.597C88.7831 502.417 89.5831 501.757 90.5831 501.757C91.8231 501.757 92.5431 502.617 92.5431 503.817C92.5431 504.697 92.2031 505.537 91.4831 506.297ZM90.6231 512.957C89.2431 512.957 88.1431 512.097 88.1431 510.757C88.1431 509.657 88.7031 508.657 89.5031 508.017C91.4231 508.797 92.7831 509.437 92.7831 510.977C92.7831 512.257 91.8631 512.957 90.6231 512.957Z" fill="#BDBDBD"/>
<path d="M90.2631 563.201C88.9831 563.201 88.1631 562.381 88.1631 560.641C88.1631 558.821 89.0631 557.921 90.1631 557.921C91.4231 557.921 92.4431 558.921 92.7031 561.621C91.9831 562.761 91.0631 563.201 90.2631 563.201ZM85.7031 569.381C86.5831 570.281 87.9231 571.061 89.7631 571.061C92.7031 571.061 95.4431 568.641 95.4431 563.041C95.4431 557.901 92.9231 555.701 90.1231 555.701C87.5831 555.701 85.4631 557.601 85.4631 560.641C85.4631 563.781 87.2431 565.301 89.7031 565.301C90.7231 565.301 91.9831 564.681 92.7431 563.681C92.6231 567.401 91.2431 568.661 89.5831 568.661C88.7031 568.661 87.7831 568.201 87.2431 567.621L85.7031 569.381Z" fill="#BDBDBD"/>
<path d="M80.4144 625.805H89.3144V623.425H86.5344V611.005H84.3544C83.4144 611.585 82.3944 611.965 80.9144 612.245V614.065H83.5944V623.425H80.4144V625.805ZM96.4518 626.085C99.4518 626.085 101.452 623.445 101.452 618.345C101.452 613.245 99.4518 610.725 96.4518 610.725C93.4318 610.725 91.4318 613.225 91.4318 618.345C91.4318 623.445 93.4318 626.085 96.4518 626.085ZM96.4518 623.785C95.1718 623.785 94.2118 622.505 94.2118 618.345C94.2118 614.205 95.1718 613.005 96.4518 613.005C97.7118 613.005 98.6718 614.205 98.6718 618.345C98.6718 622.505 97.7118 623.785 96.4518 623.785Z" fill="#BDBDBD"/>
<path d="M294.505 125.59H301.625V123.686H299.401V113.75H297.657C296.905 114.214 296.089 114.518 294.905 114.742V116.198H297.049V123.686H294.505V125.59ZM306.999 125.814C309.255 125.814 311.159 124.55 311.159 122.374C311.159 120.822 310.135 119.83 308.791 119.462V119.382C310.055 118.886 310.775 117.958 310.775 116.678C310.775 114.646 309.223 113.526 306.935 113.526C305.543 113.526 304.407 114.086 303.383 114.982L304.583 116.422C305.287 115.782 305.975 115.382 306.823 115.366C307.831 115.382 308.407 115.926 308.407 116.854C308.407 117.91 307.703 118.662 305.527 118.662V120.358C308.103 120.358 308.791 121.078 308.791 122.246C308.791 123.302 307.975 123.894 306.775 123.894C305.703 123.894 304.839 123.366 304.135 122.678L303.031 124.166C303.863 125.11 305.127 125.814 306.999 125.814ZM316.421 125.814C318.677 125.814 320.581 124.55 320.581 122.374C320.581 120.822 319.557 119.83 318.213 119.462V119.382C319.477 118.886 320.197 117.958 320.197 116.678C320.197 114.646 318.645 113.526 316.357 113.526C314.965 113.526 313.829 114.086 312.805 114.982L314.005 116.422C314.709 115.782 315.397 115.382 316.245 115.366C317.253 115.382 317.829 115.926 317.829 116.854C317.829 117.91 317.125 118.662 314.949 118.662V120.358C317.525 120.358 318.213 121.078 318.213 122.246C318.213 123.302 317.397 123.894 316.197 123.894C315.125 123.894 314.261 123.366 313.557 122.678L312.453 124.166C313.285 125.11 314.549 125.814 316.421 125.814Z" fill="#BDBDBD"/>
<path d="M302.288 180.838C304.544 180.838 306.448 179.574 306.448 177.398C306.448 175.846 305.424 174.854 304.08 174.486V174.406C305.344 173.91 306.064 172.982 306.064 171.702C306.064 169.67 304.512 168.55 302.224 168.55C300.832 168.55 299.696 169.11 298.672 170.006L299.872 171.446C300.576 170.806 301.264 170.406 302.112 170.39C303.12 170.406 303.696 170.95 303.696 171.878C303.696 172.934 302.992 173.686 300.816 173.686V175.382C303.392 175.382 304.08 176.102 304.08 177.27C304.08 178.326 303.264 178.918 302.064 178.918C300.992 178.918 300.128 178.39 299.424 177.702L298.32 179.19C299.152 180.134 300.416 180.838 302.288 180.838ZM309.95 175.75L311.79 172.806C312.126 172.166 312.446 171.51 312.734 170.886H312.798C312.766 171.574 312.702 172.646 312.702 173.334V175.75H309.95ZM316.302 175.75H314.894V168.774H312.078L307.662 175.942V177.542H312.702V180.614H314.894V177.542H316.302V175.75Z" fill="#BDBDBD"/>
<path d="M306.499 236.861C308.755 236.861 310.659 235.597 310.659 233.421C310.659 231.869 309.635 230.877 308.291 230.509V230.429C309.555 229.933 310.275 229.005 310.275 227.725C310.275 225.693 308.723 224.573 306.435 224.573C305.043 224.573 303.907 225.133 302.883 226.029L304.083 227.469C304.787 226.829 305.475 226.429 306.323 226.413C307.331 226.429 307.907 226.973 307.907 227.901C307.907 228.957 307.203 229.709 305.027 229.709V231.405C307.603 231.405 308.291 232.125 308.291 233.293C308.291 234.349 307.475 234.941 306.275 234.941C305.203 234.941 304.339 234.413 303.635 233.725L302.531 235.213C303.363 236.157 304.627 236.861 306.499 236.861Z" fill="#BDBDBD"/>
<path d="M299.216 292.661H306.336V290.757H304.112V280.821H302.368C301.616 281.285 300.8 281.589 299.616 281.813V283.269H301.76V290.757H299.216V292.661ZM311.806 286.597C310.782 286.597 310.126 285.941 310.126 284.549C310.126 283.093 310.846 282.373 311.726 282.373C312.734 282.373 313.55 283.173 313.758 285.333C313.182 286.245 312.446 286.597 311.806 286.597ZM308.158 291.541C308.862 292.261 309.934 292.885 311.406 292.885C313.758 292.885 315.95 290.949 315.95 286.469C315.95 282.357 313.934 280.597 311.694 280.597C309.662 280.597 307.966 282.117 307.966 284.549C307.966 287.061 309.39 288.277 311.358 288.277C312.174 288.277 313.182 287.781 313.79 286.981C313.694 289.957 312.59 290.965 311.262 290.965C310.558 290.965 309.822 290.597 309.39 290.133L308.158 291.541Z" fill="#BDBDBD"/>
<path d="M300.528 342.821L302.368 339.877C302.704 339.237 303.024 338.581 303.312 337.957H303.376C303.344 338.645 303.28 339.717 303.28 340.405V342.821H300.528ZM306.88 342.821H305.472V335.845H302.656L298.24 343.013V344.613H303.28V347.685H305.472V344.613H306.88V342.821ZM311.742 347.909C313.934 347.909 315.886 346.389 315.886 343.749C315.886 341.173 314.222 339.989 312.238 339.989C311.694 339.989 311.278 340.101 310.814 340.325L311.038 337.813H315.342V335.845H309.006L308.686 341.589L309.758 342.293C310.446 341.845 310.83 341.669 311.534 341.669C312.734 341.669 313.534 342.437 313.534 343.813C313.534 345.205 312.67 345.989 311.438 345.989C310.334 345.989 309.502 345.445 308.83 344.789L307.742 346.293C308.622 347.173 309.87 347.909 311.742 347.909Z" fill="#BDBDBD"/>
<path d="M300.88 403.709H303.264C303.456 399.069 303.824 396.653 306.576 393.293V391.869H298.704V393.837H304.032C301.776 396.973 301.088 399.597 300.88 403.709ZM311.71 403.933C313.966 403.933 315.87 402.669 315.87 400.493C315.87 398.941 314.846 397.949 313.502 397.581V397.501C314.766 397.005 315.486 396.077 315.486 394.797C315.486 392.765 313.934 391.645 311.646 391.645C310.254 391.645 309.118 392.205 308.094 393.101L309.294 394.541C309.998 393.901 310.686 393.501 311.534 393.485C312.542 393.501 313.118 394.045 313.118 394.973C313.118 396.029 312.414 396.781 310.238 396.781V398.477C312.814 398.477 313.502 399.197 313.502 400.365C313.502 401.421 312.686 402.013 311.486 402.013C310.414 402.013 309.55 401.485 308.846 400.797L307.742 402.285C308.574 403.229 309.838 403.933 311.71 403.933Z" fill="#BDBDBD"/>
<path d="M307.123 456.181C306.131 456.181 305.331 455.349 305.107 453.189C305.699 452.277 306.403 451.941 307.043 451.941C308.067 451.941 308.723 452.597 308.723 454.005C308.723 455.445 308.003 456.181 307.123 456.181ZM310.707 447.013C309.987 446.277 308.931 445.669 307.491 445.669C305.107 445.669 302.915 447.557 302.915 451.973C302.915 456.149 304.915 457.957 307.171 457.957C309.187 457.957 310.883 456.437 310.883 454.005C310.883 451.461 309.475 450.277 307.491 450.277C306.723 450.277 305.699 450.757 305.059 451.541C305.155 448.581 306.275 447.557 307.635 447.557C308.323 447.557 309.043 447.941 309.459 448.421L310.707 447.013Z" fill="#BDBDBD"/>
<path d="M306.595 508.693C305.571 508.693 304.915 508.037 304.915 506.645C304.915 505.189 305.635 504.469 306.515 504.469C307.523 504.469 308.339 505.269 308.547 507.429C307.971 508.341 307.235 508.693 306.595 508.693ZM302.947 513.637C303.651 514.357 304.723 514.981 306.195 514.981C308.547 514.981 310.739 513.045 310.739 508.565C310.739 504.453 308.723 502.693 306.483 502.693C304.451 502.693 302.755 504.213 302.755 506.645C302.755 509.157 304.179 510.373 306.147 510.373C306.963 510.373 307.971 509.877 308.579 509.077C308.483 512.053 307.379 513.061 306.051 513.061C305.347 513.061 304.611 512.693 304.179 512.229L302.947 513.637Z" fill="#BDBDBD"/>
<path d="M300.528 565.917L302.368 562.973C302.704 562.333 303.024 561.677 303.312 561.053H303.376C303.344 561.741 303.28 562.813 303.28 563.501V565.917H300.528ZM306.88 565.917H305.472V558.941H302.656L298.24 566.109V567.709H303.28V570.781H305.472V567.709H306.88V565.917ZM312.334 569.229C311.342 569.229 310.542 568.397 310.318 566.237C310.91 565.325 311.614 564.989 312.254 564.989C313.278 564.989 313.934 565.645 313.934 567.053C313.934 568.493 313.214 569.229 312.334 569.229ZM315.918 560.061C315.198 559.325 314.142 558.717 312.702 558.717C310.318 558.717 308.126 560.605 308.126 565.021C308.126 569.197 310.126 571.005 312.382 571.005C314.398 571.005 316.094 569.485 316.094 567.053C316.094 564.509 314.686 563.325 312.702 563.325C311.934 563.325 310.91 563.805 310.27 564.589C310.366 561.629 311.486 560.605 312.846 560.605C313.534 560.605 314.254 560.989 314.67 561.469L315.918 560.061Z" fill="#BDBDBD"/>
<path d="M293.881 625.805H301.817V623.821H299.241C298.697 623.821 297.913 623.885 297.321 623.949C299.481 621.837 301.257 619.533 301.257 617.389C301.257 615.181 299.769 613.741 297.529 613.741C295.913 613.741 294.857 614.381 293.769 615.533L295.049 616.813C295.641 616.157 296.361 615.597 297.225 615.597C298.345 615.597 299.001 616.317 299.001 617.517C299.001 619.341 297.097 621.565 293.881 624.445V625.805ZM307.335 626.029C309.735 626.029 311.335 623.917 311.335 619.837C311.335 615.757 309.735 613.741 307.335 613.741C304.919 613.741 303.319 615.741 303.319 619.837C303.319 623.917 304.919 626.029 307.335 626.029ZM307.335 624.189C306.311 624.189 305.543 623.165 305.543 619.837C305.543 616.525 306.311 615.565 307.335 615.565C308.343 615.565 309.111 616.525 309.111 619.837C309.111 623.165 308.343 624.189 307.335 624.189ZM314.661 620.941L316.501 617.997C316.837 617.357 317.157 616.701 317.445 616.077H317.509C317.477 616.765 317.413 617.837 317.413 618.525V620.941H314.661ZM321.013 620.941H319.605V613.965H316.789L312.373 621.133V622.733H317.413V625.805H319.605V622.733H321.013V620.941Z" fill="#BDBDBD"/>
<path d="M156.361 125.59H163.481V123.686H161.257V113.75H159.513C158.761 114.214 157.945 114.518 156.761 114.742V116.198H158.905V123.686H156.361V125.59ZM169.175 125.814C171.575 125.814 173.159 124.438 173.159 122.646C173.159 121.03 172.263 120.07 171.175 119.478V119.398C171.959 118.838 172.695 117.862 172.695 116.694C172.695 114.806 171.351 113.542 169.255 113.542C167.191 113.542 165.687 114.758 165.687 116.662C165.687 117.926 166.343 118.822 167.255 119.478V119.558C166.151 120.15 165.223 121.126 165.223 122.646C165.223 124.502 166.919 125.814 169.175 125.814ZM169.927 118.822C168.679 118.326 167.767 117.782 167.767 116.662C167.767 115.718 168.407 115.19 169.207 115.19C170.199 115.19 170.775 115.878 170.775 116.838C170.775 117.542 170.503 118.214 169.927 118.822ZM169.239 124.15C168.135 124.15 167.255 123.462 167.255 122.39C167.255 121.51 167.703 120.71 168.343 120.198C169.879 120.822 170.967 121.334 170.967 122.566C170.967 123.59 170.231 124.15 169.239 124.15ZM175.349 125.59H177.477V120.646C177.477 119.526 177.285 117.878 177.173 116.758H177.237L178.181 119.542L180.021 124.518H181.381L183.205 119.542L184.165 116.758H184.229C184.117 117.878 183.941 119.526 183.941 120.646V125.59H186.101V113.75H183.477L181.509 119.286C181.253 120.022 181.045 120.806 180.789 121.574H180.709C180.469 120.806 180.245 120.022 179.989 119.286L177.973 113.75H175.349V125.59ZM194.982 125.59H197.35V115.718H200.71V113.75H191.654V115.718H194.982V125.59ZM204.998 115.622H206.534C208.054 115.622 208.886 116.054 208.886 117.334C208.886 118.598 208.054 119.238 206.534 119.238H204.998V115.622ZM211.718 125.59L208.95 120.742C210.31 120.214 211.206 119.11 211.206 117.334C211.206 114.614 209.238 113.75 206.758 113.75H202.63V125.59H204.998V121.11H206.646L209.078 125.59H211.718ZM212.179 125.59H214.691L215.955 122.966C216.243 122.358 216.515 121.734 216.819 121.014H216.883C217.235 121.734 217.507 122.358 217.811 122.966L219.139 125.59H221.763L218.435 119.59L221.555 113.75H219.059L217.939 116.182C217.683 116.742 217.443 117.318 217.155 118.054H217.075C216.723 117.318 216.467 116.742 216.195 116.182L215.011 113.75H212.387L215.507 119.478L212.179 125.59Z" fill="#BDBDBD"/>
<path d="M156.361 180.614H163.481V178.71H161.257V168.774H159.513C158.761 169.238 157.945 169.542 156.761 169.766V171.222H158.905V178.71H156.361V180.614ZM169.479 179.062C168.487 179.062 167.687 178.23 167.463 176.07C168.055 175.158 168.759 174.822 169.399 174.822C170.423 174.822 171.079 175.478 171.079 176.886C171.079 178.326 170.359 179.062 169.479 179.062ZM173.063 169.894C172.343 169.158 171.287 168.55 169.847 168.55C167.463 168.55 165.271 170.438 165.271 174.854C165.271 179.03 167.271 180.838 169.527 180.838C171.543 180.838 173.239 179.318 173.239 176.886C173.239 174.342 171.831 173.158 169.847 173.158C169.079 173.158 168.055 173.638 167.415 174.422C167.511 171.462 168.631 170.438 169.991 170.438C170.679 170.438 171.399 170.822 171.815 171.302L173.063 169.894ZM175.349 180.614H177.477V175.67C177.477 174.55 177.285 172.902 177.173 171.782H177.237L178.181 174.566L180.021 179.542H181.381L183.205 174.566L184.165 171.782H184.229C184.117 172.902 183.941 174.55 183.941 175.67V180.614H186.101V168.774H183.477L181.509 174.31C181.253 175.046 181.045 175.83 180.789 176.598H180.709C180.469 175.83 180.245 175.046 179.989 174.31L177.973 168.774H175.349V180.614ZM194.982 180.614H197.35V170.742H200.71V168.774H191.654V170.742H194.982V180.614ZM204.998 170.646H206.534C208.054 170.646 208.886 171.078 208.886 172.358C208.886 173.622 208.054 174.262 206.534 174.262H204.998V170.646ZM211.718 180.614L208.95 175.766C210.31 175.238 211.206 174.134 211.206 172.358C211.206 169.638 209.238 168.774 206.758 168.774H202.63V180.614H204.998V176.134H206.646L209.078 180.614H211.718ZM212.179 180.614H214.691L215.955 177.99C216.243 177.382 216.515 176.758 216.819 176.038H216.883C217.235 176.758 217.507 177.382 217.811 177.99L219.139 180.614H221.763L218.435 174.614L221.555 168.774H219.059L217.939 171.206C217.683 171.766 217.443 172.342 217.155 173.078H217.075C216.723 172.342 216.467 171.766 216.195 171.206L215.011 168.774H212.387L215.507 174.502L212.179 180.614Z" fill="#BDBDBD"/>
<path d="M163.74 230.573C162.716 230.573 162.06 229.917 162.06 228.525C162.06 227.069 162.78 226.349 163.66 226.349C164.668 226.349 165.484 227.149 165.692 229.309C165.116 230.221 164.38 230.573 163.74 230.573ZM160.092 235.517C160.796 236.237 161.868 236.861 163.34 236.861C165.692 236.861 167.884 234.925 167.884 230.445C167.884 226.333 165.868 224.573 163.628 224.573C161.596 224.573 159.9 226.093 159.9 228.525C159.9 231.037 161.324 232.253 163.292 232.253C164.108 232.253 165.116 231.757 165.724 230.957C165.628 233.933 164.524 234.941 163.196 234.941C162.492 234.941 161.756 234.573 161.324 234.109L160.092 235.517ZM170.138 236.637H172.266V231.693C172.266 230.573 172.074 228.925 171.962 227.805H172.026L172.97 230.589L174.81 235.565H176.17L177.994 230.589L178.954 227.805H179.018C178.906 228.925 178.73 230.573 178.73 231.693V236.637H180.89V224.797H178.266L176.298 230.333C176.042 231.069 175.834 231.853 175.578 232.621H175.498C175.258 231.853 175.034 231.069 174.778 230.333L172.762 224.797H170.138V236.637ZM189.771 236.637H192.139V226.765H195.499V224.797H186.443V226.765H189.771V236.637ZM199.787 226.669H201.323C202.843 226.669 203.675 227.101 203.675 228.381C203.675 229.645 202.843 230.285 201.323 230.285H199.787V226.669ZM206.507 236.637L203.739 231.789C205.099 231.261 205.995 230.157 205.995 228.381C205.995 225.661 204.027 224.797 201.547 224.797H197.419V236.637H199.787V232.157H201.435L203.867 236.637H206.507ZM206.968 236.637H209.48L210.744 234.013C211.032 233.405 211.304 232.781 211.608 232.061H211.672C212.024 232.781 212.296 233.405 212.6 234.013L213.928 236.637H216.552L213.224 230.637L216.344 224.797H213.848L212.728 227.229C212.472 227.789 212.232 228.365 211.944 229.101H211.864C211.512 228.365 211.256 227.789 210.984 227.229L209.8 224.797H207.176L210.296 230.525L206.968 236.637Z" fill="#BDBDBD"/>
<path d="M151.65 292.661H158.77V290.757H156.546V280.821H154.802C154.05 281.285 153.234 281.589 152.05 281.813V283.269H154.194V290.757H151.65V292.661ZM164.464 292.885C166.864 292.885 168.448 291.509 168.448 289.717C168.448 288.101 167.552 287.141 166.464 286.549V286.469C167.248 285.909 167.984 284.933 167.984 283.765C167.984 281.877 166.64 280.613 164.544 280.613C162.48 280.613 160.976 281.829 160.976 283.733C160.976 284.997 161.632 285.893 162.544 286.549V286.629C161.44 287.221 160.512 288.197 160.512 289.717C160.512 291.573 162.208 292.885 164.464 292.885ZM165.216 285.893C163.968 285.397 163.056 284.853 163.056 283.733C163.056 282.789 163.696 282.261 164.496 282.261C165.488 282.261 166.064 282.949 166.064 283.909C166.064 284.613 165.792 285.285 165.216 285.893ZM164.528 291.221C163.424 291.221 162.544 290.533 162.544 289.461C162.544 288.581 162.992 287.781 163.632 287.269C165.168 287.893 166.256 288.405 166.256 289.637C166.256 290.661 165.52 291.221 164.528 291.221ZM173.902 292.885C176.302 292.885 177.902 290.773 177.902 286.693C177.902 282.613 176.302 280.597 173.902 280.597C171.486 280.597 169.886 282.597 169.886 286.693C169.886 290.773 171.486 292.885 173.902 292.885ZM173.902 291.045C172.878 291.045 172.11 290.021 172.11 286.693C172.11 283.381 172.878 282.421 173.902 282.421C174.91 282.421 175.678 283.381 175.678 286.693C175.678 290.021 174.91 291.045 173.902 291.045ZM180.06 292.661H182.188V287.717C182.188 286.597 181.996 284.949 181.884 283.829H181.948L182.892 286.613L184.732 291.589H186.092L187.916 286.613L188.876 283.829H188.94C188.828 284.949 188.652 286.597 188.652 287.717V292.661H190.812V280.821H188.188L186.22 286.357C185.964 287.093 185.756 287.877 185.5 288.645H185.42C185.18 287.877 184.956 287.093 184.7 286.357L182.684 280.821H180.06V292.661ZM199.693 292.661H202.061V282.789H205.421V280.821H196.365V282.789H199.693V292.661ZM209.709 282.693H211.245C212.765 282.693 213.597 283.125 213.597 284.405C213.597 285.669 212.765 286.309 211.245 286.309H209.709V282.693ZM216.429 292.661L213.661 287.813C215.021 287.285 215.917 286.181 215.917 284.405C215.917 281.685 213.949 280.821 211.469 280.821H207.341V292.661H209.709V288.181H211.357L213.789 292.661H216.429ZM216.89 292.661H219.402L220.666 290.037C220.954 289.429 221.226 288.805 221.53 288.085H221.594C221.946 288.805 222.218 289.429 222.522 290.037L223.85 292.661H226.474L223.146 286.661L226.266 280.821H223.77L222.65 283.253C222.394 283.813 222.154 284.389 221.866 285.125H221.786C221.434 284.389 221.178 283.813 220.906 283.253L219.722 280.821H217.098L220.218 286.549L216.89 292.661Z" fill="#BDBDBD"/>
<path d="M146.439 347.685H153.559V345.781H151.335V335.845H149.591C148.839 336.309 148.023 336.613 146.839 336.837V338.293H148.983V345.781H146.439V347.685ZM159.253 347.909C161.653 347.909 163.237 346.533 163.237 344.741C163.237 343.125 162.341 342.165 161.253 341.573V341.493C162.037 340.933 162.773 339.957 162.773 338.789C162.773 336.901 161.429 335.637 159.333 335.637C157.269 335.637 155.765 336.853 155.765 338.757C155.765 340.021 156.421 340.917 157.333 341.573V341.653C156.229 342.245 155.301 343.221 155.301 344.741C155.301 346.597 156.997 347.909 159.253 347.909ZM160.005 340.917C158.757 340.421 157.845 339.877 157.845 338.757C157.845 337.813 158.485 337.285 159.285 337.285C160.277 337.285 160.853 337.973 160.853 338.933C160.853 339.637 160.581 340.309 160.005 340.917ZM159.317 346.245C158.213 346.245 157.333 345.557 157.333 344.485C157.333 343.605 157.781 342.805 158.421 342.293C159.957 342.917 161.045 343.429 161.045 344.661C161.045 345.685 160.309 346.245 159.317 346.245ZM168.691 347.909C171.091 347.909 172.691 345.797 172.691 341.717C172.691 337.637 171.091 335.621 168.691 335.621C166.275 335.621 164.675 337.621 164.675 341.717C164.675 345.797 166.275 347.909 168.691 347.909ZM168.691 346.069C167.667 346.069 166.899 345.045 166.899 341.717C166.899 338.405 167.667 337.445 168.691 337.445C169.699 337.445 170.467 338.405 170.467 341.717C170.467 345.045 169.699 346.069 168.691 346.069ZM178.113 347.909C180.513 347.909 182.113 345.797 182.113 341.717C182.113 337.637 180.513 335.621 178.113 335.621C175.697 335.621 174.097 337.621 174.097 341.717C174.097 345.797 175.697 347.909 178.113 347.909ZM178.113 346.069C177.089 346.069 176.321 345.045 176.321 341.717C176.321 338.405 177.089 337.445 178.113 337.445C179.121 337.445 179.889 338.405 179.889 341.717C179.889 345.045 179.121 346.069 178.113 346.069ZM184.27 347.685H186.398V342.741C186.398 341.621 186.206 339.973 186.094 338.853H186.158L187.102 341.637L188.942 346.613H190.302L192.126 341.637L193.086 338.853H193.15C193.038 339.973 192.862 341.621 192.862 342.741V347.685H195.022V335.845H192.398L190.43 341.381C190.174 342.117 189.966 342.901 189.71 343.669H189.63C189.39 342.901 189.166 342.117 188.91 341.381L186.894 335.845H184.27V347.685ZM203.904 347.685H206.272V337.813H209.632V335.845H200.576V337.813H203.904V347.685ZM213.92 337.717H215.456C216.976 337.717 217.808 338.149 217.808 339.429C217.808 340.693 216.976 341.333 215.456 341.333H213.92V337.717ZM220.64 347.685L217.872 342.837C219.232 342.309 220.128 341.205 220.128 339.429C220.128 336.709 218.16 335.845 215.68 335.845H211.552V347.685H213.92V343.205H215.568L218 347.685H220.64ZM221.101 347.685H223.613L224.877 345.061C225.165 344.453 225.437 343.829 225.741 343.109H225.805C226.157 343.829 226.429 344.453 226.733 345.061L228.061 347.685H230.685L227.357 341.685L230.477 335.845H227.981L226.861 338.277C226.605 338.837 226.365 339.413 226.077 340.149H225.997C225.645 339.413 225.389 338.837 225.117 338.277L223.933 335.845H221.309L224.429 341.573L221.101 347.685Z" fill="#BDBDBD"/>
<path d="M159.529 397.645C158.505 397.645 157.849 396.989 157.849 395.597C157.849 394.141 158.569 393.421 159.449 393.421C160.457 393.421 161.273 394.221 161.481 396.381C160.905 397.293 160.169 397.645 159.529 397.645ZM155.881 402.589C156.585 403.309 157.657 403.933 159.129 403.933C161.481 403.933 163.673 401.997 163.673 397.517C163.673 393.405 161.657 391.645 159.417 391.645C157.385 391.645 155.689 393.165 155.689 395.597C155.689 398.109 157.113 399.325 159.081 399.325C159.897 399.325 160.905 398.829 161.513 398.029C161.417 401.005 160.313 402.013 158.985 402.013C158.281 402.013 157.545 401.645 157.113 401.181L155.881 402.589ZM169.479 402.157C168.487 402.157 167.687 401.325 167.463 399.165C168.055 398.253 168.759 397.917 169.399 397.917C170.423 397.917 171.079 398.573 171.079 399.981C171.079 401.421 170.359 402.157 169.479 402.157ZM173.063 392.989C172.343 392.253 171.287 391.645 169.847 391.645C167.463 391.645 165.271 393.533 165.271 397.949C165.271 402.125 167.271 403.933 169.527 403.933C171.543 403.933 173.239 402.413 173.239 399.981C173.239 397.437 171.831 396.253 169.847 396.253C169.079 396.253 168.055 396.733 167.415 397.517C167.511 394.557 168.631 393.533 169.991 393.533C170.679 393.533 171.399 393.917 171.815 394.397L173.063 392.989ZM175.349 403.709H177.477V398.765C177.477 397.645 177.285 395.997 177.173 394.877H177.237L178.181 397.661L180.021 402.637H181.381L183.205 397.661L184.165 394.877H184.229C184.117 395.997 183.941 397.645 183.941 398.765V403.709H186.101V391.869H183.477L181.509 397.405C181.253 398.141 181.045 398.925 180.789 399.693H180.709C180.469 398.925 180.245 398.141 179.989 397.405L177.973 391.869H175.349V403.709ZM194.982 403.709H197.35V393.837H200.71V391.869H191.654V393.837H194.982V403.709ZM204.998 393.741H206.534C208.054 393.741 208.886 394.173 208.886 395.453C208.886 396.717 208.054 397.357 206.534 397.357H204.998V393.741ZM211.718 403.709L208.95 398.861C210.31 398.333 211.206 397.229 211.206 395.453C211.206 392.733 209.238 391.869 206.758 391.869H202.63V403.709H204.998V399.229H206.646L209.078 403.709H211.718ZM212.179 403.709H214.691L215.955 401.085C216.243 400.477 216.515 399.853 216.819 399.133H216.883C217.235 399.853 217.507 400.477 217.811 401.085L219.139 403.709H221.763L218.435 397.709L221.555 391.869H219.059L217.939 394.301C217.683 394.861 217.443 395.437 217.155 396.173H217.075C216.723 395.437 216.467 394.861 216.195 394.301L215.011 391.869H212.387L215.507 397.597L212.179 403.709Z" fill="#BDBDBD"/>
<path d="M157.673 452.869L159.513 449.925C159.849 449.285 160.169 448.629 160.457 448.005H160.521C160.489 448.693 160.425 449.765 160.425 450.453V452.869H157.673ZM164.025 452.869H162.617V445.893H159.801L155.385 453.061V454.661H160.425V457.733H162.617V454.661H164.025V452.869ZM167.447 457.733H169.831C170.023 453.093 170.391 450.677 173.143 447.317V445.893H165.271V447.861H170.599C168.343 450.997 167.655 453.621 167.447 457.733ZM175.349 457.733H177.477V452.789C177.477 451.669 177.285 450.021 177.173 448.901H177.237L178.181 451.685L180.021 456.661H181.381L183.205 451.685L184.165 448.901H184.229C184.117 450.021 183.941 451.669 183.941 452.789V457.733H186.101V445.893H183.477L181.509 451.429C181.253 452.165 181.045 452.949 180.789 453.717H180.709C180.469 452.949 180.245 452.165 179.989 451.429L177.973 445.893H175.349V457.733ZM194.982 457.733H197.35V447.861H200.71V445.893H191.654V447.861H194.982V457.733ZM204.998 447.765H206.534C208.054 447.765 208.886 448.197 208.886 449.477C208.886 450.741 208.054 451.381 206.534 451.381H204.998V447.765ZM211.718 457.733L208.95 452.885C210.31 452.357 211.206 451.253 211.206 449.477C211.206 446.757 209.238 445.893 206.758 445.893H202.63V457.733H204.998V453.253H206.646L209.078 457.733H211.718ZM212.179 457.733H214.691L215.955 455.109C216.243 454.501 216.515 453.877 216.819 453.157H216.883C217.235 453.877 217.507 454.501 217.811 455.109L219.139 457.733H221.763L218.435 451.733L221.555 445.893H219.059L217.939 448.325C217.683 448.885 217.443 449.461 217.155 450.197H217.075C216.723 449.461 216.467 448.885 216.195 448.325L215.011 445.893H212.387L215.507 451.621L212.179 457.733Z" fill="#BDBDBD"/>
<path d="M151.65 514.757H158.77V512.853H156.546V502.917H154.802C154.05 503.381 153.234 503.685 152.05 503.909V505.365H154.194V512.853H151.65V514.757ZM164.48 514.981C166.88 514.981 168.48 512.869 168.48 508.789C168.48 504.709 166.88 502.693 164.48 502.693C162.064 502.693 160.464 504.693 160.464 508.789C160.464 512.869 162.064 514.981 164.48 514.981ZM164.48 513.141C163.456 513.141 162.688 512.117 162.688 508.789C162.688 505.477 163.456 504.517 164.48 504.517C165.488 504.517 166.256 505.477 166.256 508.789C166.256 512.117 165.488 513.141 164.48 513.141ZM173.662 508.693C172.638 508.693 171.982 508.037 171.982 506.645C171.982 505.189 172.702 504.469 173.582 504.469C174.59 504.469 175.406 505.269 175.614 507.429C175.038 508.341 174.302 508.693 173.662 508.693ZM170.014 513.637C170.718 514.357 171.79 514.981 173.262 514.981C175.614 514.981 177.806 513.045 177.806 508.565C177.806 504.453 175.79 502.693 173.55 502.693C171.518 502.693 169.822 504.213 169.822 506.645C169.822 509.157 171.246 510.373 173.214 510.373C174.03 510.373 175.038 509.877 175.646 509.077C175.55 512.053 174.446 513.061 173.118 513.061C172.414 513.061 171.678 512.693 171.246 512.229L170.014 513.637ZM180.06 514.757H182.188V509.813C182.188 508.693 181.996 507.045 181.884 505.925H181.948L182.892 508.709L184.732 513.685H186.092L187.916 508.709L188.876 505.925H188.94C188.828 507.045 188.652 508.693 188.652 509.813V514.757H190.812V502.917H188.188L186.22 508.453C185.964 509.189 185.756 509.973 185.5 510.741H185.42C185.18 509.973 184.956 509.189 184.7 508.453L182.684 502.917H180.06V514.757ZM199.693 514.757H202.061V504.885H205.421V502.917H196.365V504.885H199.693V514.757ZM209.709 504.789H211.245C212.765 504.789 213.597 505.221 213.597 506.501C213.597 507.765 212.765 508.405 211.245 508.405H209.709V504.789ZM216.429 514.757L213.661 509.909C215.021 509.381 215.917 508.277 215.917 506.501C215.917 503.781 213.949 502.917 211.469 502.917H207.341V514.757H209.709V510.277H211.357L213.789 514.757H216.429ZM216.89 514.757H219.402L220.666 512.133C220.954 511.525 221.226 510.901 221.53 510.181H221.594C221.946 510.901 222.218 511.525 222.522 512.133L223.85 514.757H226.474L223.146 508.757L226.266 502.917H223.77L222.65 505.349C222.394 505.909 222.154 506.485 221.866 507.221H221.786C221.434 506.485 221.178 505.909 220.906 505.349L219.722 502.917H217.098L220.218 508.645L216.89 514.757Z" fill="#BDBDBD"/>
<path d="M156.361 570.781H163.481V568.877H161.257V558.941H159.513C158.761 559.405 157.945 559.709 156.761 559.933V561.389H158.905V568.877H156.361V570.781ZM169.191 571.005C171.591 571.005 173.191 568.893 173.191 564.813C173.191 560.733 171.591 558.717 169.191 558.717C166.775 558.717 165.175 560.717 165.175 564.813C165.175 568.893 166.775 571.005 169.191 571.005ZM169.191 569.165C168.167 569.165 167.399 568.141 167.399 564.813C167.399 561.501 168.167 560.541 169.191 560.541C170.199 560.541 170.967 561.501 170.967 564.813C170.967 568.141 170.199 569.165 169.191 569.165ZM175.349 570.781H177.477V565.837C177.477 564.717 177.285 563.069 177.173 561.949H177.237L178.181 564.733L180.021 569.709H181.381L183.205 564.733L184.165 561.949H184.229C184.117 563.069 183.941 564.717 183.941 565.837V570.781H186.101V558.941H183.477L181.509 564.477C181.253 565.213 181.045 565.997 180.789 566.765H180.709C180.469 565.997 180.245 565.213 179.989 564.477L177.973 558.941H175.349V570.781ZM194.982 570.781H197.35V560.909H200.71V558.941H191.654V560.909H194.982V570.781ZM204.998 560.813H206.534C208.054 560.813 208.886 561.245 208.886 562.525C208.886 563.789 208.054 564.429 206.534 564.429H204.998V560.813ZM211.718 570.781L208.95 565.933C210.31 565.405 211.206 564.301 211.206 562.525C211.206 559.805 209.238 558.941 206.758 558.941H202.63V570.781H204.998V566.301H206.646L209.078 570.781H211.718ZM212.179 570.781H214.691L215.955 568.157C216.243 567.549 216.515 566.925 216.819 566.205H216.883C217.235 566.925 217.507 567.549 217.811 568.157L219.139 570.781H221.763L218.435 564.781L221.555 558.941H219.059L217.939 561.373C217.683 561.933 217.443 562.509 217.155 563.245H217.075C216.723 562.509 216.467 561.933 216.195 561.373L215.011 558.941H212.387L215.507 564.669L212.179 570.781Z" fill="#BDBDBD"/>
<path d="M159.948 625.805H167.884V623.821H165.308C164.764 623.821 163.98 623.885 163.388 623.949C165.548 621.837 167.324 619.533 167.324 617.389C167.324 615.181 165.836 613.741 163.596 613.741C161.98 613.741 160.924 614.381 159.836 615.533L161.116 616.813C161.708 616.157 162.428 615.597 163.292 615.597C164.412 615.597 165.068 616.317 165.068 617.517C165.068 619.341 163.164 621.565 159.948 624.445V625.805ZM170.138 625.805H172.266V620.861C172.266 619.741 172.074 618.093 171.962 616.973H172.026L172.97 619.757L174.81 624.733H176.17L177.994 619.757L178.954 616.973H179.018C178.906 618.093 178.73 619.741 178.73 620.861V625.805H180.89V613.965H178.266L176.298 619.501C176.042 620.237 175.834 621.021 175.578 621.789H175.498C175.258 621.021 175.034 620.237 174.778 619.501L172.762 613.965H170.138V625.805ZM189.771 625.805H192.139V615.933H195.499V613.965H186.443V615.933H189.771V625.805ZM199.787 615.837H201.323C202.843 615.837 203.675 616.269 203.675 617.549C203.675 618.813 202.843 619.453 201.323 619.453H199.787V615.837ZM206.507 625.805L203.739 620.957C205.099 620.429 205.995 619.325 205.995 617.549C205.995 614.829 204.027 613.965 201.547 613.965H197.419V625.805H199.787V621.325H201.435L203.867 625.805H206.507ZM206.968 625.805H209.48L210.744 623.181C211.032 622.573 211.304 621.949 211.608 621.229H211.672C212.024 621.949 212.296 622.573 212.6 623.181L213.928 625.805H216.552L213.224 619.805L216.344 613.965H213.848L212.728 616.397C212.472 616.957 212.232 617.533 211.944 618.269H211.864C211.512 617.533 211.256 616.957 210.984 616.397L209.8 613.965H207.176L210.296 619.693L206.968 625.805Z" fill="#BDBDBD"/>
<path d="M137.924 65.2771C138.536 65.2771 138.986 65.1691 139.292 65.0431L138.968 63.0811C138.788 63.1171 138.716 63.1171 138.608 63.1171C138.356 63.1171 138.068 62.9191 138.068 62.3251V50.6611H135.44V62.1991C135.44 64.0711 136.088 65.2771 137.924 65.2771ZM145.329 65.2771C147.849 65.2771 150.171 63.3331 150.171 60.0031C150.171 56.6371 147.849 54.6931 145.329 54.6931C142.809 54.6931 140.487 56.6371 140.487 60.0031C140.487 63.3331 142.809 65.2771 145.329 65.2771ZM145.329 63.1171C143.961 63.1171 143.187 61.8931 143.187 60.0031C143.187 58.0951 143.961 56.8531 145.329 56.8531C146.697 56.8531 147.471 58.0951 147.471 60.0031C147.471 61.8931 146.697 63.1171 145.329 63.1171ZM155.565 65.2771C156.447 65.2771 157.149 65.0791 157.689 64.8991L157.257 62.9731C156.987 63.0811 156.591 63.1891 156.267 63.1891C155.367 63.1891 154.899 62.6491 154.899 61.4971V57.0331H157.383V54.9451H154.899V52.2451H152.685L152.379 54.9451L150.831 55.0711V57.0331H152.253V61.4971C152.253 63.7651 153.171 65.2771 155.565 65.2771ZM162.702 65.2771C163.584 65.2771 164.286 65.0791 164.826 64.8991L164.394 62.9731C164.124 63.0811 163.728 63.1891 163.404 63.1891C162.504 63.1891 162.036 62.6491 162.036 61.4971V57.0331H164.52V54.9451H162.036V52.2451H159.822L159.516 54.9451L157.968 55.0711V57.0331H159.39V61.4971C159.39 63.7651 160.308 65.2771 162.702 65.2771ZM170.61 65.2771C171.87 65.2771 173.148 64.8451 174.138 64.1611L173.238 62.5411C172.518 62.9911 171.798 63.2431 170.97 63.2431C169.476 63.2431 168.396 62.3791 168.18 60.7231H174.39C174.462 60.4891 174.516 60.0031 174.516 59.5171C174.516 56.7271 173.076 54.6931 170.304 54.6931C167.892 54.6931 165.606 56.7271 165.606 60.0031C165.606 63.3151 167.802 65.2771 170.61 65.2771ZM168.144 58.9771C168.342 57.5011 169.278 56.7451 170.34 56.7451C171.636 56.7451 172.248 57.6091 172.248 58.9771H168.144ZM176.695 65.0251H179.323V59.0131C179.899 57.5551 180.853 57.0331 181.645 57.0331C182.059 57.0331 182.347 57.0871 182.689 57.1951L183.157 54.9091C182.851 54.7831 182.527 54.6931 181.969 54.6931C180.925 54.6931 179.845 55.4131 179.107 56.7271H179.035L178.855 54.9451H176.695V65.0251ZM185.663 69.0751C187.913 69.0751 188.993 67.7071 189.875 65.3311L193.457 54.9451H190.919L189.533 59.6251C189.299 60.5611 189.047 61.5331 188.813 62.4691H188.723C188.435 61.4971 188.183 60.5251 187.877 59.6251L186.275 54.9451H183.611L187.535 64.8451L187.355 65.4391C187.067 66.3211 186.491 66.9691 185.465 66.9691C185.231 66.9691 184.943 66.8971 184.763 66.8431L184.277 68.8771C184.673 69.0031 185.069 69.0751 185.663 69.0751ZM199.195 68.8951H201.823V65.8351L201.751 64.1791C202.525 64.8811 203.371 65.2771 204.253 65.2771C206.467 65.2771 208.537 63.2791 208.537 59.8231C208.537 56.7271 207.061 54.6931 204.577 54.6931C203.497 54.6931 202.453 55.2691 201.607 55.9891H201.535L201.355 54.9451H199.195V68.8951ZM203.659 63.0991C203.119 63.0991 202.471 62.9011 201.823 62.3431V57.9151C202.525 57.2131 203.137 56.8711 203.821 56.8711C205.207 56.8711 205.819 57.9331 205.819 59.8591C205.819 62.0551 204.883 63.0991 203.659 63.0991ZM210.779 65.0251H213.407V59.0131C213.983 57.5551 214.937 57.0331 215.729 57.0331C216.143 57.0331 216.431 57.0871 216.773 57.1951L217.241 54.9091C216.935 54.7831 216.611 54.6931 216.053 54.6931C215.009 54.6931 213.929 55.4131 213.191 56.7271H213.119L212.939 54.9451H210.779V65.0251ZM218.619 65.0251H221.247V54.9451H218.619V65.0251ZM219.951 53.3251C220.851 53.3251 221.517 52.7131 221.517 51.8851C221.517 51.0211 220.851 50.4451 219.951 50.4451C219.033 50.4451 218.367 51.0211 218.367 51.8851C218.367 52.7131 219.033 53.3251 219.951 53.3251ZM228.37 65.2771C229.486 65.2771 230.71 64.8991 231.664 64.0531L230.62 62.3071C230.062 62.7751 229.378 63.1171 228.658 63.1171C227.2 63.1171 226.156 61.8931 226.156 60.0031C226.156 58.0951 227.2 56.8531 228.73 56.8531C229.306 56.8531 229.774 57.0871 230.278 57.5191L231.538 55.8091C230.8 55.1791 229.846 54.6931 228.604 54.6931C225.868 54.6931 223.456 56.6371 223.456 60.0031C223.456 63.3331 225.58 65.2771 228.37 65.2771ZM237.407 65.2771C238.667 65.2771 239.945 64.8451 240.935 64.1611L240.035 62.5411C239.315 62.9911 238.595 63.2431 237.767 63.2431C236.273 63.2431 235.193 62.3791 234.977 60.7231H241.187C241.259 60.4891 241.313 60.0031 241.313 59.5171C241.313 56.7271 239.873 54.6931 237.101 54.6931C234.689 54.6931 232.403 56.7271 232.403 60.0031C232.403 63.3151 234.599 65.2771 237.407 65.2771ZM234.941 58.9771C235.139 57.5011 236.075 56.7451 237.137 56.7451C238.433 56.7451 239.045 57.6091 239.045 58.9771H234.941Z" fill="white"/>
<path d="M273.96 65.2771C276.48 65.2771 278.802 63.3331 278.802 60.0031C278.802 56.6371 276.48 54.6931 273.96 54.6931C271.44 54.6931 269.118 56.6371 269.118 60.0031C269.118 63.3331 271.44 65.2771 273.96 65.2771ZM273.96 63.1171C272.592 63.1171 271.818 61.8931 271.818 60.0031C271.818 58.0951 272.592 56.8531 273.96 56.8531C275.328 56.8531 276.102 58.0951 276.102 60.0031C276.102 61.8931 275.328 63.1171 273.96 63.1171ZM286.796 50.7691C286.346 50.5891 285.662 50.4091 284.888 50.4091C282.35 50.4091 281.378 52.0291 281.378 54.1351V54.9631L280.028 55.0711V57.0331H281.378V65.0251H284.024V57.0331H285.914V54.9451H284.024V54.0811C284.024 52.9651 284.456 52.4971 285.248 52.4971C285.572 52.4971 285.968 52.5871 286.31 52.7131L286.796 50.7691ZM291.703 68.8951H294.331V65.8351L294.259 64.1791C295.033 64.8811 295.879 65.2771 296.761 65.2771C298.975 65.2771 301.045 63.2791 301.045 59.8231C301.045 56.7271 299.569 54.6931 297.085 54.6931C296.005 54.6931 294.961 55.2691 294.115 55.9891H294.043L293.863 54.9451H291.703V68.8951ZM296.167 63.0991C295.627 63.0991 294.979 62.9011 294.331 62.3431V57.9151C295.033 57.2131 295.645 56.8711 296.329 56.8711C297.715 56.8711 298.327 57.9331 298.327 59.8591C298.327 62.0551 297.391 63.0991 296.167 63.0991ZM307.661 65.2771C308.921 65.2771 310.199 64.8451 311.189 64.1611L310.289 62.5411C309.569 62.9911 308.849 63.2431 308.021 63.2431C306.527 63.2431 305.447 62.3791 305.231 60.7231H311.441C311.513 60.4891 311.567 60.0031 311.567 59.5171C311.567 56.7271 310.127 54.6931 307.355 54.6931C304.943 54.6931 302.657 56.7271 302.657 60.0031C302.657 63.3151 304.853 65.2771 307.661 65.2771ZM305.195 58.9771C305.393 57.5011 306.329 56.7451 307.391 56.7451C308.687 56.7451 309.299 57.6091 309.299 58.9771H305.195ZM317.958 65.2771C320.478 65.2771 322.8 63.3331 322.8 60.0031C322.8 56.6371 320.478 54.6931 317.958 54.6931C315.438 54.6931 313.116 56.6371 313.116 60.0031C313.116 63.3331 315.438 65.2771 317.958 65.2771ZM317.958 63.1171C316.59 63.1171 315.816 61.8931 315.816 60.0031C315.816 58.0951 316.59 56.8531 317.958 56.8531C319.326 56.8531 320.1 58.0951 320.1 60.0031C320.1 61.8931 319.326 63.1171 317.958 63.1171ZM325.014 68.8951H327.642V65.8351L327.57 64.1791C328.344 64.8811 329.19 65.2771 330.072 65.2771C332.286 65.2771 334.356 63.2791 334.356 59.8231C334.356 56.7271 332.88 54.6931 330.396 54.6931C329.316 54.6931 328.272 55.2691 327.426 55.9891H327.354L327.174 54.9451H325.014V68.8951ZM329.478 63.0991C328.938 63.0991 328.29 62.9011 327.642 62.3431V57.9151C328.344 57.2131 328.956 56.8711 329.64 56.8711C331.026 56.8711 331.638 57.9331 331.638 59.8591C331.638 62.0551 330.702 63.0991 329.478 63.0991ZM339.082 65.2771C339.694 65.2771 340.144 65.1691 340.45 65.0431L340.126 63.0811C339.946 63.1171 339.874 63.1171 339.766 63.1171C339.514 63.1171 339.226 62.9191 339.226 62.3251V50.6611H336.598V62.1991C336.598 64.0711 337.246 65.2771 339.082 65.2771ZM346.65 65.2771C347.91 65.2771 349.188 64.8451 350.178 64.1611L349.278 62.5411C348.558 62.9911 347.838 63.2431 347.01 63.2431C345.516 63.2431 344.436 62.3791 344.22 60.7231H350.43C350.502 60.4891 350.556 60.0031 350.556 59.5171C350.556 56.7271 349.116 54.6931 346.344 54.6931C343.932 54.6931 341.646 56.7271 341.646 60.0031C341.646 63.3151 343.842 65.2771 346.65 65.2771ZM344.184 58.9771C344.382 57.5011 345.318 56.7451 346.38 56.7451C347.676 56.7451 348.288 57.6091 348.288 58.9771H344.184Z" fill="white"/>
<line x1="70.002" y1="89.4675" x2="365.801" y2="89.4675" stroke="#FF9B9B"/>
<line x1="70.002" y1="257.495" x2="365.801" y2="257.495" stroke="#FF9B9B"/>
<line x1="70.002" y1="425.523" x2="365.801" y2="425.523" stroke="#FF9B9B"/>
<line x1="70.002" y1="593.551" x2="365.801" y2="593.551" stroke="#FF9B9B"/>
<line x1="70.002" y1="145.477" x2="365.801" y2="145.477" stroke="#FF9B9B"/>
<line x1="70.002" y1="313.505" x2="365.801" y2="313.505" stroke="#FF9B9B"/>
<line x1="70.002" y1="481.532" x2="365.801" y2="481.532" stroke="#FF9B9B"/>
<line x1="70.002" y1="201.486" x2="365.801" y2="201.486" stroke="#FF9B9B"/>
<line x1="70.002" y1="369.514" x2="365.801" y2="369.514" stroke="#FF9B9B"/>
<line x1="70.002" y1="537.542" x2="365.801" y2="537.542" stroke="#FF9B9B"/>
</svg>
