<svg width="232" height="61" viewBox="0 0 232 61" fill="none" xmlns="http://www.w3.org/2000/svg">
<rect x="0.764648" y="1.30078" width="226.091" height="56.3204" stroke="#B70909" stroke-width="1.5"/>
<rect x="2.76465" y="1.30078" width="226.091" height="56.3204" stroke="#B70909" stroke-width="1.5"/>
<rect x="3.76465" y="2.30078" width="226.675" height="57.3206" stroke="#01E1D5" stroke-width="1.5"/>
<rect x="2.76465" y="1.30078" width="226.091" height="56.3204" fill="black" fill-opacity="0.32" stroke="white" stroke-width="1.5"/>
<line x1="2.01465" y1="57.6211" x2="229.606" y2="57.6211" stroke="white" stroke-width="1.5"/>
<path d="M85.5923 36.6006H94.9521V39.4609H82.0098V18.8438H85.5923V36.6006ZM96.7222 31.6587C96.7222 30.1577 97.0195 28.8078 97.6143 27.6089C98.209 26.4006 99.0444 25.4754 100.121 24.8335C101.197 24.1821 102.433 23.8564 103.831 23.8564C105.898 23.8564 107.574 24.522 108.857 25.853C110.151 27.1841 110.849 28.9494 110.953 31.1489L110.967 31.9561C110.967 33.4665 110.675 34.8164 110.089 36.0059C109.514 37.1953 108.683 38.1157 107.597 38.7671C106.521 39.4185 105.275 39.7441 103.859 39.7441C101.697 39.7441 99.9648 39.0267 98.6621 37.5918C97.3688 36.1475 96.7222 34.2264 96.7222 31.8286V31.6587ZM100.163 31.9561C100.163 33.5326 100.489 34.7692 101.14 35.666C101.792 36.5534 102.698 36.9971 103.859 36.9971C105.02 36.9971 105.922 36.5439 106.563 35.6377C107.215 34.7314 107.541 33.4051 107.541 31.6587C107.541 30.1105 107.205 28.8833 106.535 27.9771C105.874 27.0708 104.973 26.6177 103.831 26.6177C102.707 26.6177 101.815 27.0661 101.154 27.9629C100.493 28.8503 100.163 30.1813 100.163 31.9561ZM113.275 31.687C113.275 29.3081 113.832 27.4106 114.946 25.9946C116.07 24.5692 117.556 23.8564 119.407 23.8564C121.153 23.8564 122.527 24.4653 123.527 25.6831L123.683 24.1396H126.784V38.9937C126.784 41.0044 126.156 42.5903 124.901 43.7515C123.655 44.9126 121.97 45.4932 119.846 45.4932C118.722 45.4932 117.623 45.2572 116.546 44.7852C115.48 44.3226 114.668 43.7137 114.111 42.9585L115.739 40.8911C116.797 42.1466 118.099 42.7744 119.647 42.7744C120.79 42.7744 121.691 42.4629 122.352 41.8398C123.013 41.2262 123.343 40.32 123.343 39.1211V38.0874C122.352 39.1919 121.03 39.7441 119.378 39.7441C117.585 39.7441 116.117 39.0314 114.975 37.606C113.842 36.1805 113.275 34.2075 113.275 31.687ZM116.702 31.9844C116.702 33.5231 117.014 34.7362 117.637 35.6235C118.269 36.5015 119.142 36.9404 120.256 36.9404C121.644 36.9404 122.673 36.3457 123.343 35.1562V28.416C122.692 27.2549 121.672 26.6743 120.285 26.6743C119.152 26.6743 118.269 27.1227 117.637 28.0195C117.014 28.9163 116.702 30.238 116.702 31.9844ZM133.992 39.4609H130.551V24.1396H133.992V39.4609ZM130.338 20.1606C130.338 19.632 130.504 19.193 130.834 18.8438C131.174 18.4945 131.655 18.3198 132.278 18.3198C132.901 18.3198 133.383 18.4945 133.723 18.8438C134.062 19.193 134.232 19.632 134.232 20.1606C134.232 20.6799 134.062 21.1141 133.723 21.4634C133.383 21.8032 132.901 21.9731 132.278 21.9731C131.655 21.9731 131.174 21.8032 130.834 21.4634C130.504 21.1141 130.338 20.6799 130.338 20.1606ZM140.944 24.1396L141.043 25.9097C142.176 24.5409 143.663 23.8564 145.504 23.8564C148.695 23.8564 150.318 25.6831 150.375 29.3364V39.4609H146.934V29.5347C146.934 28.5623 146.722 27.8449 146.297 27.3823C145.882 26.9103 145.197 26.6743 144.244 26.6743C142.856 26.6743 141.822 27.3021 141.143 28.5576V39.4609H137.702V24.1396H140.944Z" fill="#01E6DA"/>
<path d="M83.9678 36.6006H93.3276V39.4609H80.3853V18.8438H83.9678V36.6006ZM95.0977 31.6587C95.0977 30.1577 95.395 28.8078 95.9897 27.6089C96.5845 26.4006 97.4199 25.4754 98.4961 24.8335C99.5723 24.1821 100.809 23.8564 102.206 23.8564C104.273 23.8564 105.949 24.522 107.233 25.853C108.526 27.1841 109.225 28.9494 109.329 31.1489L109.343 31.9561C109.343 33.4665 109.05 34.8164 108.465 36.0059C107.889 37.1953 107.058 38.1157 105.973 38.7671C104.896 39.4185 103.65 39.7441 102.234 39.7441C100.073 39.7441 98.3403 39.0267 97.0376 37.5918C95.7443 36.1475 95.0977 34.2264 95.0977 31.8286V31.6587ZM98.5386 31.9561C98.5386 33.5326 98.8643 34.7692 99.5156 35.666C100.167 36.5534 101.073 36.9971 102.234 36.9971C103.396 36.9971 104.297 36.5439 104.939 35.6377C105.59 34.7314 105.916 33.4051 105.916 31.6587C105.916 30.1105 105.581 28.8833 104.911 27.9771C104.25 27.0708 103.348 26.6177 102.206 26.6177C101.083 26.6177 100.191 27.0661 99.5298 27.9629C98.869 28.8503 98.5386 30.1813 98.5386 31.9561ZM111.651 31.687C111.651 29.3081 112.208 27.4106 113.322 25.9946C114.445 24.5692 115.932 23.8564 117.782 23.8564C119.529 23.8564 120.902 24.4653 121.903 25.6831L122.059 24.1396H125.16V38.9937C125.16 41.0044 124.532 42.5903 123.276 43.7515C122.03 44.9126 120.345 45.4932 118.221 45.4932C117.098 45.4932 115.998 45.2572 114.922 44.7852C113.855 44.3226 113.043 43.7137 112.486 42.9585L114.115 40.8911C115.172 42.1466 116.475 42.7744 118.023 42.7744C119.165 42.7744 120.067 42.4629 120.728 41.8398C121.388 41.2262 121.719 40.32 121.719 39.1211V38.0874C120.728 39.1919 119.406 39.7441 117.754 39.7441C115.96 39.7441 114.492 39.0314 113.35 37.606C112.217 36.1805 111.651 34.2075 111.651 31.687ZM115.078 31.9844C115.078 33.5231 115.389 34.7362 116.012 35.6235C116.645 36.5015 117.518 36.9404 118.632 36.9404C120.02 36.9404 121.049 36.3457 121.719 35.1562V28.416C121.067 27.2549 120.048 26.6743 118.66 26.6743C117.527 26.6743 116.645 27.1227 116.012 28.0195C115.389 28.9163 115.078 30.238 115.078 31.9844ZM132.367 39.4609H128.926V24.1396H132.367V39.4609ZM128.714 20.1606C128.714 19.632 128.879 19.193 129.209 18.8438C129.549 18.4945 130.031 18.3198 130.654 18.3198C131.277 18.3198 131.758 18.4945 132.098 18.8438C132.438 19.193 132.608 19.632 132.608 20.1606C132.608 20.6799 132.438 21.1141 132.098 21.4634C131.758 21.8032 131.277 21.9731 130.654 21.9731C130.031 21.9731 129.549 21.8032 129.209 21.4634C128.879 21.1141 128.714 20.6799 128.714 20.1606ZM139.32 24.1396L139.419 25.9097C140.552 24.5409 142.039 23.8564 143.879 23.8564C147.07 23.8564 148.694 25.6831 148.75 29.3364V39.4609H145.31V29.5347C145.31 28.5623 145.097 27.8449 144.672 27.3823C144.257 26.9103 143.573 26.6743 142.619 26.6743C141.231 26.6743 140.198 27.3021 139.518 28.5576V39.4609H136.077V24.1396H139.32Z" fill="#B70909"/>
<path d="M85.0132 36.6006H94.373V39.4609H81.4307V18.8438H85.0132V36.6006ZM96.1431 31.6587C96.1431 30.1577 96.4404 28.8078 97.0352 27.6089C97.6299 26.4006 98.4653 25.4754 99.5415 24.8335C100.618 24.1821 101.854 23.8564 103.251 23.8564C105.319 23.8564 106.994 24.522 108.278 25.853C109.572 27.1841 110.27 28.9494 110.374 31.1489L110.388 31.9561C110.388 33.4665 110.096 34.8164 109.51 36.0059C108.934 37.1953 108.104 38.1157 107.018 38.7671C105.942 39.4185 104.696 39.7441 103.28 39.7441C101.118 39.7441 99.3857 39.0267 98.083 37.5918C96.7897 36.1475 96.1431 34.2264 96.1431 31.8286V31.6587ZM99.584 31.9561C99.584 33.5326 99.9097 34.7692 100.561 35.666C101.212 36.5534 102.119 36.9971 103.28 36.9971C104.441 36.9971 105.342 36.5439 105.984 35.6377C106.636 34.7314 106.961 33.4051 106.961 31.6587C106.961 30.1105 106.626 28.8833 105.956 27.9771C105.295 27.0708 104.394 26.6177 103.251 26.6177C102.128 26.6177 101.236 27.0661 100.575 27.9629C99.9144 28.8503 99.584 30.1813 99.584 31.9561ZM112.696 31.687C112.696 29.3081 113.253 27.4106 114.367 25.9946C115.491 24.5692 116.977 23.8564 118.828 23.8564C120.574 23.8564 121.948 24.4653 122.948 25.6831L123.104 24.1396H126.205V38.9937C126.205 41.0044 125.577 42.5903 124.322 43.7515C123.076 44.9126 121.391 45.4932 119.267 45.4932C118.143 45.4932 117.043 45.2572 115.967 44.7852C114.901 44.3226 114.089 43.7137 113.532 42.9585L115.16 40.8911C116.217 42.1466 117.52 42.7744 119.068 42.7744C120.211 42.7744 121.112 42.4629 121.773 41.8398C122.434 41.2262 122.764 40.32 122.764 39.1211V38.0874C121.773 39.1919 120.451 39.7441 118.799 39.7441C117.006 39.7441 115.538 39.0314 114.396 37.606C113.263 36.1805 112.696 34.2075 112.696 31.687ZM116.123 31.9844C116.123 33.5231 116.435 34.7362 117.058 35.6235C117.69 36.5015 118.563 36.9404 119.677 36.9404C121.065 36.9404 122.094 36.3457 122.764 35.1562V28.416C122.113 27.2549 121.093 26.6743 119.706 26.6743C118.573 26.6743 117.69 27.1227 117.058 28.0195C116.435 28.9163 116.123 30.238 116.123 31.9844ZM133.413 39.4609H129.972V24.1396H133.413V39.4609ZM129.759 20.1606C129.759 19.632 129.924 19.193 130.255 18.8438C130.595 18.4945 131.076 18.3198 131.699 18.3198C132.322 18.3198 132.804 18.4945 133.144 18.8438C133.483 19.193 133.653 19.632 133.653 20.1606C133.653 20.6799 133.483 21.1141 133.144 21.4634C132.804 21.8032 132.322 21.9731 131.699 21.9731C131.076 21.9731 130.595 21.8032 130.255 21.4634C129.924 21.1141 129.759 20.6799 129.759 20.1606ZM140.365 24.1396L140.464 25.9097C141.597 24.5409 143.084 23.8564 144.925 23.8564C148.116 23.8564 149.739 25.6831 149.796 29.3364V39.4609H146.355V29.5347C146.355 28.5623 146.143 27.8449 145.718 27.3823C145.302 26.9103 144.618 26.6743 143.665 26.6743C142.277 26.6743 141.243 27.3021 140.563 28.5576V39.4609H137.123V24.1396H140.365Z" fill="white"/>
</svg>
