<svg width="232" height="61" viewBox="0 0 232 61" fill="none" xmlns="http://www.w3.org/2000/svg">
<rect x="1.24902" y="1.30078" width="226.091" height="56.3204" stroke="#B70909" stroke-width="1.5"/>
<rect x="4.10596" y="2.30078" width="226.675" height="57.3206" stroke="#01E1D5" stroke-width="1.5"/>
<rect x="3.24902" y="1.30078" width="226.091" height="56.3204" fill="black" fill-opacity="0.32" stroke="white" stroke-width="1.5"/>
<line x1="2.49902" y1="57.6211" x2="230.09" y2="57.6211" stroke="white" stroke-width="1.5"/>
<path d="M80.6987 34.1509C80.6987 33.2446 80.3778 32.5461 79.7358 32.0552C79.1034 31.5643 77.9564 31.0687 76.2949 30.5684C74.6335 30.068 73.3118 29.5111 72.3301 28.8975C70.4515 27.7174 69.5122 26.1787 69.5122 24.2812C69.5122 22.6198 70.1872 21.251 71.5371 20.1748C72.8965 19.0986 74.6571 18.5605 76.8188 18.5605C78.2537 18.5605 79.5329 18.8249 80.6562 19.3535C81.7796 19.8822 82.6623 20.6374 83.3042 21.6191C83.9461 22.5915 84.2671 23.6724 84.2671 24.8618H80.6987C80.6987 23.7856 80.3589 22.9455 79.6792 22.3413C79.009 21.7277 78.0461 21.4209 76.7905 21.4209C75.62 21.4209 74.709 21.6711 74.0576 22.1714C73.4157 22.6717 73.0947 23.3703 73.0947 24.2671C73.0947 25.0223 73.444 25.6548 74.1426 26.1646C74.8411 26.6649 75.9928 27.1558 77.5977 27.6372C79.2025 28.1092 80.491 28.652 81.4634 29.2656C82.4357 29.8698 83.1484 30.5684 83.6016 31.3613C84.0547 32.1449 84.2812 33.0653 84.2812 34.1226C84.2812 35.8407 83.6204 37.2095 82.2988 38.229C80.9867 39.2391 79.2025 39.7441 76.9463 39.7441C75.4548 39.7441 74.0812 39.4704 72.8257 38.9229C71.5796 38.3659 70.6073 37.6012 69.9087 36.6289C69.2196 35.6566 68.875 34.5238 68.875 33.2305H72.4575C72.4575 34.401 72.8446 35.3073 73.6187 35.9492C74.3927 36.5911 75.502 36.9121 76.9463 36.9121C78.1924 36.9121 79.127 36.6619 79.75 36.1616C80.3825 35.6519 80.6987 34.9816 80.6987 34.1509ZM90.7524 39.4609H87.3115V24.1396H90.7524V39.4609ZM87.0991 20.1606C87.0991 19.632 87.2643 19.193 87.5947 18.8438C87.9346 18.4945 88.416 18.3198 89.0391 18.3198C89.6621 18.3198 90.1436 18.4945 90.4834 18.8438C90.8232 19.193 90.9932 19.632 90.9932 20.1606C90.9932 20.6799 90.8232 21.1141 90.4834 21.4634C90.1436 21.8032 89.6621 21.9731 89.0391 21.9731C88.416 21.9731 87.9346 21.8032 87.5947 21.4634C87.2643 21.1141 87.0991 20.6799 87.0991 20.1606ZM93.9102 31.687C93.9102 29.3081 94.4671 27.4106 95.5811 25.9946C96.7044 24.5692 98.1912 23.8564 100.042 23.8564C101.788 23.8564 103.161 24.4653 104.162 25.6831L104.318 24.1396H107.419V38.9937C107.419 41.0044 106.791 42.5903 105.536 43.7515C104.29 44.9126 102.604 45.4932 100.48 45.4932C99.3571 45.4932 98.2573 45.2572 97.1812 44.7852C96.1144 44.3226 95.3026 43.7137 94.7456 42.9585L96.374 40.8911C97.4313 42.1466 98.734 42.7744 100.282 42.7744C101.424 42.7744 102.326 42.4629 102.987 41.8398C103.648 41.2262 103.978 40.32 103.978 39.1211V38.0874C102.987 39.1919 101.665 39.7441 100.013 39.7441C98.2196 39.7441 96.7516 39.0314 95.6094 37.606C94.4766 36.1805 93.9102 34.2075 93.9102 31.687ZM97.3369 31.9844C97.3369 33.5231 97.6484 34.7362 98.2715 35.6235C98.904 36.5015 99.7772 36.9404 100.891 36.9404C102.279 36.9404 103.308 36.3457 103.978 35.1562V28.416C103.327 27.2549 102.307 26.6743 100.919 26.6743C99.7866 26.6743 98.904 27.1227 98.2715 28.0195C97.6484 28.9163 97.3369 30.238 97.3369 31.9844ZM114.159 24.1396L114.258 25.9097C115.391 24.5409 116.878 23.8564 118.719 23.8564C121.91 23.8564 123.533 25.6831 123.59 29.3364V39.4609H120.149V29.5347C120.149 28.5623 119.937 27.8449 119.512 27.3823C119.096 26.9103 118.412 26.6743 117.458 26.6743C116.071 26.6743 115.037 27.3021 114.357 28.5576V39.4609H110.917V24.1396H114.159ZM143.612 37.96C142.602 39.1494 141.167 39.7441 139.308 39.7441C137.646 39.7441 136.386 39.258 135.527 38.2856C134.677 37.3133 134.252 35.9067 134.252 34.0659V24.1396H137.693V34.0234C137.693 35.9681 138.5 36.9404 140.115 36.9404C141.786 36.9404 142.914 36.341 143.499 35.1421V24.1396H146.94V39.4609H143.697L143.612 37.96ZM163.861 31.9561C163.861 34.3255 163.323 36.2183 162.247 37.6343C161.171 39.0409 159.727 39.7441 157.914 39.7441C156.234 39.7441 154.889 39.1919 153.878 38.0874V45.3516H150.438V24.1396H153.609L153.751 25.6973C154.761 24.4701 156.135 23.8564 157.872 23.8564C159.741 23.8564 161.204 24.555 162.261 25.9521C163.328 27.3398 163.861 29.2703 163.861 31.7437V31.9561ZM160.435 31.6587C160.435 30.1294 160.128 28.9163 159.514 28.0195C158.91 27.1227 158.042 26.6743 156.909 26.6743C155.502 26.6743 154.492 27.2549 153.878 28.416V35.2129C154.501 36.4023 155.521 36.9971 156.937 36.9971C158.032 36.9971 158.886 36.5581 159.5 35.6802C160.123 34.7928 160.435 33.4523 160.435 31.6587Z" fill="#01E6DA"/>
<path d="M79.0737 34.1509C79.0737 33.2446 78.7528 32.5461 78.1108 32.0552C77.4784 31.5643 76.3314 31.0687 74.6699 30.5684C73.0085 30.068 71.6868 29.5111 70.7051 28.8975C68.8265 27.7174 67.8872 26.1787 67.8872 24.2812C67.8872 22.6198 68.5622 21.251 69.9121 20.1748C71.2715 19.0986 73.0321 18.5605 75.1938 18.5605C76.6287 18.5605 77.9079 18.8249 79.0312 19.3535C80.1546 19.8822 81.0373 20.6374 81.6792 21.6191C82.3211 22.5915 82.6421 23.6724 82.6421 24.8618H79.0737C79.0737 23.7856 78.7339 22.9455 78.0542 22.3413C77.384 21.7277 76.4211 21.4209 75.1655 21.4209C73.995 21.4209 73.084 21.6711 72.4326 22.1714C71.7907 22.6717 71.4697 23.3703 71.4697 24.2671C71.4697 25.0223 71.819 25.6548 72.5176 26.1646C73.2161 26.6649 74.3678 27.1558 75.9727 27.6372C77.5775 28.1092 78.866 28.652 79.8384 29.2656C80.8107 29.8698 81.5234 30.5684 81.9766 31.3613C82.4297 32.1449 82.6562 33.0653 82.6562 34.1226C82.6562 35.8407 81.9954 37.2095 80.6738 38.229C79.3617 39.2391 77.5775 39.7441 75.3213 39.7441C73.8298 39.7441 72.4562 39.4704 71.2007 38.9229C69.9546 38.3659 68.9823 37.6012 68.2837 36.6289C67.5946 35.6566 67.25 34.5238 67.25 33.2305H70.8325C70.8325 34.401 71.2196 35.3073 71.9937 35.9492C72.7677 36.5911 73.877 36.9121 75.3213 36.9121C76.5674 36.9121 77.502 36.6619 78.125 36.1616C78.7575 35.6519 79.0737 34.9816 79.0737 34.1509ZM89.1274 39.4609H85.6865V24.1396H89.1274V39.4609ZM85.4741 20.1606C85.4741 19.632 85.6393 19.193 85.9697 18.8438C86.3096 18.4945 86.791 18.3198 87.4141 18.3198C88.0371 18.3198 88.5186 18.4945 88.8584 18.8438C89.1982 19.193 89.3682 19.632 89.3682 20.1606C89.3682 20.6799 89.1982 21.1141 88.8584 21.4634C88.5186 21.8032 88.0371 21.9731 87.4141 21.9731C86.791 21.9731 86.3096 21.8032 85.9697 21.4634C85.6393 21.1141 85.4741 20.6799 85.4741 20.1606ZM92.2852 31.687C92.2852 29.3081 92.8421 27.4106 93.9561 25.9946C95.0794 24.5692 96.5662 23.8564 98.4165 23.8564C100.163 23.8564 101.536 24.4653 102.537 25.6831L102.693 24.1396H105.794V38.9937C105.794 41.0044 105.166 42.5903 103.911 43.7515C102.665 44.9126 100.979 45.4932 98.8555 45.4932C97.7321 45.4932 96.6323 45.2572 95.5562 44.7852C94.4894 44.3226 93.6776 43.7137 93.1206 42.9585L94.749 40.8911C95.8063 42.1466 97.109 42.7744 98.6572 42.7744C99.7995 42.7744 100.701 42.4629 101.362 41.8398C102.023 41.2262 102.353 40.32 102.353 39.1211V38.0874C101.362 39.1919 100.04 39.7441 98.3882 39.7441C96.5946 39.7441 95.1266 39.0314 93.9844 37.606C92.8516 36.1805 92.2852 34.2075 92.2852 31.687ZM95.7119 31.9844C95.7119 33.5231 96.0234 34.7362 96.6465 35.6235C97.279 36.5015 98.1522 36.9404 99.2661 36.9404C100.654 36.9404 101.683 36.3457 102.353 35.1562V28.416C101.702 27.2549 100.682 26.6743 99.2944 26.6743C98.1616 26.6743 97.279 27.1227 96.6465 28.0195C96.0234 28.9163 95.7119 30.238 95.7119 31.9844ZM112.534 24.1396L112.633 25.9097C113.766 24.5409 115.253 23.8564 117.094 23.8564C120.285 23.8564 121.908 25.6831 121.965 29.3364V39.4609H118.524V29.5347C118.524 28.5623 118.312 27.8449 117.887 27.3823C117.471 26.9103 116.787 26.6743 115.833 26.6743C114.446 26.6743 113.412 27.3021 112.732 28.5576V39.4609H109.292V24.1396H112.534ZM141.987 37.96C140.977 39.1494 139.542 39.7441 137.683 39.7441C136.021 39.7441 134.761 39.258 133.902 38.2856C133.052 37.3133 132.627 35.9067 132.627 34.0659V24.1396H136.068V34.0234C136.068 35.9681 136.875 36.9404 138.49 36.9404C140.161 36.9404 141.289 36.341 141.874 35.1421V24.1396H145.315V39.4609H142.072L141.987 37.96ZM162.236 31.9561C162.236 34.3255 161.698 36.2183 160.622 37.6343C159.546 39.0409 158.102 39.7441 156.289 39.7441C154.609 39.7441 153.264 39.1919 152.253 38.0874V45.3516H148.812V24.1396H151.984L152.126 25.6973C153.136 24.4701 154.51 23.8564 156.247 23.8564C158.116 23.8564 159.579 24.555 160.636 25.9521C161.703 27.3398 162.236 29.2703 162.236 31.7437V31.9561ZM158.81 31.6587C158.81 30.1294 158.503 28.9163 157.889 28.0195C157.285 27.1227 156.417 26.6743 155.284 26.6743C153.877 26.6743 152.867 27.2549 152.253 28.416V35.2129C152.876 36.4023 153.896 36.9971 155.312 36.9971C156.407 36.9971 157.261 36.5581 157.875 35.6802C158.498 34.7928 158.81 33.4523 158.81 31.6587Z" fill="#B70909"/>
<path d="M80.1187 34.1509C80.1187 33.2446 79.7977 32.5461 79.1558 32.0552C78.5233 31.5643 77.3763 31.0687 75.7148 30.5684C74.0534 30.068 72.7318 29.5111 71.75 28.8975C69.8714 27.7174 68.9321 26.1787 68.9321 24.2812C68.9321 22.6198 69.6071 21.251 70.957 20.1748C72.3164 19.0986 74.077 18.5605 76.2388 18.5605C77.6737 18.5605 78.9528 18.8249 80.0762 19.3535C81.1995 19.8822 82.0822 20.6374 82.7241 21.6191C83.366 22.5915 83.687 23.6724 83.687 24.8618H80.1187C80.1187 23.7856 79.7788 22.9455 79.0991 22.3413C78.4289 21.7277 77.466 21.4209 76.2104 21.4209C75.0399 21.4209 74.1289 21.6711 73.4775 22.1714C72.8356 22.6717 72.5146 23.3703 72.5146 24.2671C72.5146 25.0223 72.8639 25.6548 73.5625 26.1646C74.2611 26.6649 75.4128 27.1558 77.0176 27.6372C78.6224 28.1092 79.911 28.652 80.8833 29.2656C81.8556 29.8698 82.5684 30.5684 83.0215 31.3613C83.4746 32.1449 83.7012 33.0653 83.7012 34.1226C83.7012 35.8407 83.0404 37.2095 81.7188 38.229C80.4066 39.2391 78.6224 39.7441 76.3662 39.7441C74.8747 39.7441 73.5011 39.4704 72.2456 38.9229C70.9995 38.3659 70.0272 37.6012 69.3286 36.6289C68.6395 35.6566 68.2949 34.5238 68.2949 33.2305H71.8774C71.8774 34.401 72.2645 35.3073 73.0386 35.9492C73.8127 36.5911 74.9219 36.9121 76.3662 36.9121C77.6123 36.9121 78.5469 36.6619 79.1699 36.1616C79.8024 35.6519 80.1187 34.9816 80.1187 34.1509ZM90.1724 39.4609H86.7314V24.1396H90.1724V39.4609ZM86.519 20.1606C86.519 19.632 86.6842 19.193 87.0146 18.8438C87.3545 18.4945 87.8359 18.3198 88.459 18.3198C89.082 18.3198 89.5635 18.4945 89.9033 18.8438C90.2432 19.193 90.4131 19.632 90.4131 20.1606C90.4131 20.6799 90.2432 21.1141 89.9033 21.4634C89.5635 21.8032 89.082 21.9731 88.459 21.9731C87.8359 21.9731 87.3545 21.8032 87.0146 21.4634C86.6842 21.1141 86.519 20.6799 86.519 20.1606ZM93.3301 31.687C93.3301 29.3081 93.887 27.4106 95.001 25.9946C96.1243 24.5692 97.6112 23.8564 99.4614 23.8564C101.208 23.8564 102.581 24.4653 103.582 25.6831L103.738 24.1396H106.839V38.9937C106.839 41.0044 106.211 42.5903 104.956 43.7515C103.709 44.9126 102.024 45.4932 99.9004 45.4932C98.777 45.4932 97.6772 45.2572 96.6011 44.7852C95.5343 44.3226 94.7225 43.7137 94.1655 42.9585L95.7939 40.8911C96.8512 42.1466 98.154 42.7744 99.7021 42.7744C100.844 42.7744 101.746 42.4629 102.407 41.8398C103.068 41.2262 103.398 40.32 103.398 39.1211V38.0874C102.407 39.1919 101.085 39.7441 99.4331 39.7441C97.6395 39.7441 96.1715 39.0314 95.0293 37.606C93.8965 36.1805 93.3301 34.2075 93.3301 31.687ZM96.7568 31.9844C96.7568 33.5231 97.0684 34.7362 97.6914 35.6235C98.3239 36.5015 99.1971 36.9404 100.311 36.9404C101.699 36.9404 102.728 36.3457 103.398 35.1562V28.416C102.747 27.2549 101.727 26.6743 100.339 26.6743C99.2065 26.6743 98.3239 27.1227 97.6914 28.0195C97.0684 28.9163 96.7568 30.238 96.7568 31.9844ZM113.579 24.1396L113.678 25.9097C114.811 24.5409 116.298 23.8564 118.139 23.8564C121.329 23.8564 122.953 25.6831 123.01 29.3364V39.4609H119.569V29.5347C119.569 28.5623 119.356 27.8449 118.932 27.3823C118.516 26.9103 117.832 26.6743 116.878 26.6743C115.491 26.6743 114.457 27.3021 113.777 28.5576V39.4609H110.336V24.1396H113.579ZM143.032 37.96C142.022 39.1494 140.587 39.7441 138.728 39.7441C137.066 39.7441 135.806 39.258 134.947 38.2856C134.097 37.3133 133.672 35.9067 133.672 34.0659V24.1396H137.113V34.0234C137.113 35.9681 137.92 36.9404 139.535 36.9404C141.206 36.9404 142.334 36.341 142.919 35.1421V24.1396H146.36V39.4609H143.117L143.032 37.96ZM163.281 31.9561C163.281 34.3255 162.743 36.2183 161.667 37.6343C160.591 39.0409 159.146 39.7441 157.334 39.7441C155.654 39.7441 154.308 39.1919 153.298 38.0874V45.3516H149.857V24.1396H153.029L153.171 25.6973C154.181 24.4701 155.555 23.8564 157.292 23.8564C159.161 23.8564 160.624 24.555 161.681 25.9521C162.748 27.3398 163.281 29.2703 163.281 31.7437V31.9561ZM159.854 31.6587C159.854 30.1294 159.548 28.9163 158.934 28.0195C158.33 27.1227 157.461 26.6743 156.329 26.6743C154.922 26.6743 153.912 27.2549 153.298 28.416V35.2129C153.921 36.4023 154.941 36.9971 156.357 36.9971C157.452 36.9971 158.306 36.5581 158.92 35.6802C159.543 34.7928 159.854 33.4523 159.854 31.6587Z" fill="white"/>
</svg>
