<svg width="185" height="215" viewBox="0 0 185 215" fill="none" xmlns="http://www.w3.org/2000/svg">
<mask id="mask0" mask-type="alpha" maskUnits="userSpaceOnUse" x="0" y="0" width="185" height="213">
<rect x="0.5" y="0.847656" width="183.632" height="211.305" fill="#C4C4C4" stroke="black"/>
</mask>
<g mask="url(#mask0)">
<g filter="url(#filter0_f)">
<path d="M89.7893 15.7235L89.7893 1.65425L107.076 11.1419L106.893 16.404L132.161 31.1349L157.871 44.9356L161.925 42.9087L177.187 52.3281L166.098 59.0051L89.7893 15.7235Z" fill="#F0C2F0"/>
</g>
<path d="M175.436 135.437L175.025 75.9736L179.325 73.5174V51.7666L161.541 41.5537L157.746 43.4544L108.51 15.2185L108.463 10.9955L89.777 0.347656L69.9806 10.0519V15.4528L21.2297 43.6284L17.1654 40.9313L0.161494 51.8001L0 73.4505L4.03734 76.1275L3.748 133.141L0 134.667L0.161494 154.658L0.666161 154.946L89.7366 206.097L178.807 154.946C178.807 154.946 178.807 154.946 178.814 154.946H178.821L179.305 154.665L179.877 137.177L175.436 135.437ZM173 74.8225L173.431 136.816L177.818 138.536L177.367 152.376L166.581 146.185V60.2461L177.313 54.0822V72.3529L173 74.8225ZM13.9154 147.912L88.734 190.878V203.199L3.18277 154.076L13.9154 147.912ZM89.7434 17.2865L164.562 60.2528V146.179L89.7434 189.145L14.9247 146.179V60.2461L89.7434 17.2865ZM90.7527 190.878L165.571 147.912L176.304 154.076L90.7527 203.199V190.878ZM106.505 16.3964L157.685 45.7433L161.48 43.8426L176.297 52.3555L165.571 58.5194L90.8469 15.6V3.2723L106.465 12.1801L106.505 16.3964ZM21.1624 45.9909L71.9993 16.6106V11.3034L88.8215 3.05814V15.4996L13.9759 58.4725L3.17604 52.2551L17.152 43.3273L21.1624 45.9909ZM5.76667 134.493L6.06274 75.0567L2.0254 72.3797L2.15998 53.9885L12.8993 60.1724V146.172L2.15325 152.342L2.01867 136.006L5.76667 134.493Z" fill="#E5004E"/>
<g filter="url(#filter1_f)">
<path d="M89.3545 204.921V190.813L165.188 147.312L177.533 154.954L89.3545 204.921Z" fill="#B16091"/>
</g>
<g filter="url(#filter2_f)">
<path d="M15.2805 59.1343L2.34766 52.6679L17.044 43.2622L21.7469 46.2015L48.4943 30.9172L71.7146 17.3966V11.518L89.9381 2.7002V16.2209L15.2805 59.1343Z" fill="#F0B8E7" fill-opacity="0.7"/>
</g>
<g filter="url(#filter3_f)">
<path d="M13.0871 144.806L1.9152 152.651L1.21164 136.247L5.74429 133.658L5.93064 104.623L5.89094 79.3053L1.18957 76.6774L2.59263 57.6091L13.4058 63.6533L13.0871 144.806Z" fill="#F0B8E7" fill-opacity="0.4"/>
</g>
<path d="M90.0821 190.418L165.152 147.076L165.008 60.1447L89.7952 16.5546L14.7253 59.8962L14.863 146.831L90.0821 190.418Z" fill="url(#paint0_linear)"/>
<path fill-rule="evenodd" clip-rule="evenodd" d="M165.397 59.9207L165.541 147.301L90.0817 190.867L14.4747 147.055L14.3363 59.6721L89.7955 16.1058L165.397 59.9207ZM89.7947 17.0036L15.1142 60.1204L15.2512 146.607L90.0824 189.969L164.763 146.852L164.62 60.3689L89.7947 17.0036Z" fill="#7B7878"/>
<g filter="url(#filter4_d)">
<path d="M176.678 108.129V142.01L67.2432 207.465V173.584L176.678 108.129Z" fill="#1C0F1B" fill-opacity="0.7"/>
</g>
<g filter="url(#filter5_d)">
<path fill-rule="evenodd" clip-rule="evenodd" d="M177.359 106.93V142.396L66.5635 208.664V173.199L177.359 106.93ZM67.9235 173.97V206.266L175.999 141.625V109.328L67.9235 173.97Z" fill="#AF5E7F"/>
</g>
<path d="M184.437 103.486V137.367L176.679 142.01V108.123L184.437 103.486Z" fill="url(#paint1_linear)"/>
<path fill-rule="evenodd" clip-rule="evenodd" d="M184.632 103.144V137.477L176.484 142.353V108.013L184.632 103.144ZM176.873 108.234V141.667L184.243 137.257V103.829L176.873 108.234Z" fill="#CE3650"/>
<path d="M135.281 149.623L138.193 154.665C138.677 155.503 138.796 156.317 138.552 157.108C138.311 157.897 137.737 158.553 136.829 159.077C135.935 159.594 135.089 159.767 134.29 159.597C133.491 159.428 132.847 158.933 132.359 158.111L129.413 153.011L130.991 152.1L133.909 157.153C134.198 157.654 134.529 157.952 134.901 158.046C135.274 158.134 135.673 158.055 136.097 157.81C136.984 157.298 137.165 156.572 136.641 155.631L133.698 150.537L135.281 149.623Z" fill="white"/>
<path d="M143.805 152.23C143.633 151.932 143.396 151.765 143.095 151.729C142.791 151.689 142.316 151.739 141.668 151.88C141.018 152.017 140.484 152.092 140.065 152.104C138.925 152.136 138.125 151.755 137.665 150.959C137.426 150.545 137.33 150.111 137.375 149.655C137.421 149.193 137.609 148.745 137.939 148.312C138.272 147.877 138.71 147.502 139.253 147.189C139.8 146.873 140.345 146.691 140.888 146.644C141.429 146.593 141.921 146.681 142.364 146.906C142.811 147.13 143.167 147.471 143.432 147.93L141.855 148.841C141.652 148.49 141.385 148.283 141.053 148.217C140.719 148.149 140.352 148.23 139.952 148.46C139.567 148.683 139.315 148.938 139.196 149.227C139.075 149.511 139.092 149.787 139.246 150.053C139.389 150.302 139.634 150.439 139.98 150.463C140.33 150.486 140.791 150.43 141.363 150.296C142.416 150.048 143.263 150.005 143.904 150.168C144.545 150.33 145.037 150.71 145.382 151.306C145.764 151.968 145.814 152.633 145.532 153.301C145.247 153.966 144.681 154.543 143.832 155.033C143.243 155.373 142.645 155.576 142.038 155.641C141.429 155.703 140.888 155.621 140.416 155.393C139.947 155.164 139.569 154.802 139.284 154.308L140.867 153.394C141.354 154.239 142.103 154.37 143.113 153.787C143.488 153.57 143.737 153.326 143.86 153.054C143.981 152.778 143.963 152.503 143.805 152.23Z" fill="white"/>
<path d="M150.31 146.727L147.282 148.476L148.466 150.527L152.02 148.474L152.752 149.741L147.62 152.705L143.199 145.05L148.32 142.092L149.058 143.37L145.514 145.416L146.568 147.241L149.596 145.492L150.31 146.727Z" fill="white"/>
<path d="M154.893 144.768L153.636 145.494L155.254 148.296L153.677 149.207L149.256 141.552L152.1 139.909C153.005 139.387 153.819 139.185 154.542 139.305C155.266 139.425 155.84 139.853 156.265 140.589C156.567 141.111 156.705 141.613 156.68 142.095C156.656 142.572 156.474 143.046 156.134 143.518L159.597 145.69L159.639 145.764L157.946 146.741L154.893 144.768ZM152.898 144.216L154.171 143.481C154.567 143.252 154.816 142.975 154.918 142.65C155.017 142.321 154.965 141.98 154.761 141.626C154.552 141.265 154.285 141.041 153.959 140.953C153.636 140.864 153.262 140.942 152.838 141.187L151.571 141.918L152.898 144.216Z" fill="white"/>
<path d="M163.364 140.934C163.192 140.636 162.955 140.469 162.654 140.433C162.35 140.393 161.875 140.444 161.227 140.584C160.577 140.721 160.042 140.796 159.624 140.808C158.484 140.841 157.684 140.459 157.224 139.663C156.985 139.25 156.888 138.815 156.934 138.359C156.98 137.897 157.168 137.45 157.497 137.016C157.83 136.581 158.268 136.207 158.812 135.893C159.359 135.577 159.903 135.396 160.446 135.348C160.987 135.298 161.48 135.385 161.923 135.611C162.37 135.834 162.726 136.175 162.991 136.634L161.414 137.545C161.211 137.195 160.944 136.987 160.612 136.922C160.278 136.853 159.911 136.934 159.511 137.165C159.126 137.387 158.873 137.643 158.755 137.931C158.634 138.216 158.651 138.491 158.805 138.758C158.948 139.007 159.193 139.143 159.539 139.168C159.889 139.19 160.35 139.134 160.922 139C161.975 138.752 162.822 138.709 163.463 138.872C164.104 139.035 164.596 139.414 164.94 140.01C165.323 140.672 165.373 141.338 165.09 142.006C164.806 142.67 164.239 143.247 163.391 143.737C162.802 144.077 162.204 144.28 161.597 144.346C160.988 144.408 160.447 144.325 159.974 144.098C159.505 143.868 159.128 143.507 158.843 143.012L160.425 142.099C160.913 142.943 161.662 143.074 162.671 142.491C163.047 142.275 163.296 142.03 163.419 141.758C163.54 141.482 163.522 141.208 163.364 140.934Z" fill="white"/>
</g>
<defs>
<filter id="filter0_f" x="83.7891" y="-4.3457" width="99.3975" height="69.3508" filterUnits="userSpaceOnUse" color-interpolation-filters="sRGB">
<feFlood flood-opacity="0" result="BackgroundImageFix"/>
<feBlend mode="normal" in="SourceGraphic" in2="BackgroundImageFix" result="shape"/>
<feGaussianBlur stdDeviation="3" result="effect1_foregroundBlur"/>
</filter>
<filter id="filter1_f" x="79.3545" y="137.312" width="108.178" height="77.6098" filterUnits="userSpaceOnUse" color-interpolation-filters="sRGB">
<feFlood flood-opacity="0" result="BackgroundImageFix"/>
<feBlend mode="normal" in="SourceGraphic" in2="BackgroundImageFix" result="shape"/>
<feGaussianBlur stdDeviation="5" result="effect1_foregroundBlur"/>
</filter>
<filter id="filter2_f" x="-7.65234" y="-7.2998" width="107.59" height="76.4341" filterUnits="userSpaceOnUse" color-interpolation-filters="sRGB">
<feFlood flood-opacity="0" result="BackgroundImageFix"/>
<feBlend mode="normal" in="SourceGraphic" in2="BackgroundImageFix" result="shape"/>
<feGaussianBlur stdDeviation="5" result="effect1_foregroundBlur"/>
</filter>
<filter id="filter3_f" x="-8.81055" y="47.6094" width="32.2162" height="115.041" filterUnits="userSpaceOnUse" color-interpolation-filters="sRGB">
<feFlood flood-opacity="0" result="BackgroundImageFix"/>
<feBlend mode="normal" in="SourceGraphic" in2="BackgroundImageFix" result="shape"/>
<feGaussianBlur stdDeviation="5" result="effect1_foregroundBlur"/>
</filter>
<filter id="filter4_d" x="65.2432" y="108.129" width="115.435" height="106.336" filterUnits="userSpaceOnUse" color-interpolation-filters="sRGB">
<feFlood flood-opacity="0" result="BackgroundImageFix"/>
<feColorMatrix in="SourceAlpha" type="matrix" values="0 0 0 0 0 0 0 0 0 0 0 0 0 0 0 0 0 0 127 0"/>
<feOffset dx="1" dy="4"/>
<feGaussianBlur stdDeviation="1.5"/>
<feColorMatrix type="matrix" values="0 0 0 0 0 0 0 0 0 0 0 0 0 0 0 0 0 0 0.77 0"/>
<feBlend mode="normal" in2="BackgroundImageFix" result="effect1_dropShadow"/>
<feBlend mode="normal" in="SourceGraphic" in2="effect1_dropShadow" result="shape"/>
</filter>
<filter id="filter5_d" x="64.5635" y="106.93" width="116.795" height="108.734" filterUnits="userSpaceOnUse" color-interpolation-filters="sRGB">
<feFlood flood-opacity="0" result="BackgroundImageFix"/>
<feColorMatrix in="SourceAlpha" type="matrix" values="0 0 0 0 0 0 0 0 0 0 0 0 0 0 0 0 0 0 127 0"/>
<feOffset dx="1" dy="4"/>
<feGaussianBlur stdDeviation="1.5"/>
<feColorMatrix type="matrix" values="0 0 0 0 0 0 0 0 0 0 0 0 0 0 0 0 0 0 0.77 0"/>
<feBlend mode="normal" in2="BackgroundImageFix" result="effect1_dropShadow"/>
<feBlend mode="normal" in="SourceGraphic" in2="effect1_dropShadow" result="shape"/>
</filter>
<linearGradient id="paint0_linear" x1="165.008" y1="60.1447" x2="14.863" y2="146.831" gradientUnits="userSpaceOnUse">
<stop stop-color="#FF0000" stop-opacity="0"/>
<stop offset="1" stop-color="#FF5353" stop-opacity="0.47"/>
</linearGradient>
<linearGradient id="paint1_linear" x1="180.57" y1="138.109" x2="180.54" y2="107.218" gradientUnits="userSpaceOnUse">
<stop stop-color="#DD164E"/>
<stop offset="0.1339" stop-color="#D3154A"/>
<stop offset="0.3604" stop-color="#B9123F"/>
<stop offset="0.6518" stop-color="#8D0D2C"/>
<stop offset="0.9938" stop-color="#520713"/>
<stop offset="1" stop-color="#510713"/>
</linearGradient>
</defs>
</svg>
