<svg width="185" height="216" viewBox="0 0 185 216" fill="none" xmlns="http://www.w3.org/2000/svg">
<mask id="mask0" mask-type="alpha" maskUnits="userSpaceOnUse" x="0" y="0" width="185" height="215">
<rect y="0.347656" width="184.632" height="213.786" fill="#C4C4C4"/>
</mask>
<g mask="url(#mask0)">
<g filter="url(#filter0_f)">
<path d="M89.7893 16.0639L89.7893 1.99458L107.076 11.4822L106.893 16.7444L132.161 31.4752L157.871 45.276L161.925 43.249L177.187 52.6684L166.098 59.3454L89.7893 16.0639Z" fill="#F0C2F0"/>
</g>
<path d="M175.436 135.777L175.025 76.3139L179.325 73.8577V52.1069L161.541 41.8941L157.746 43.7948L108.51 15.5589L108.463 11.3358L89.777 0.687988L69.9806 10.3922V15.7931L21.2297 43.9688L17.1654 41.2717L0.161494 52.1404L0 73.7908L4.03734 76.4678L3.748 133.482L0 135.008L0.161494 154.998L0.666161 155.286L89.7366 206.437L178.807 155.286C178.807 155.286 178.807 155.286 178.814 155.286H178.821L179.305 155.005L179.877 137.517L175.436 135.777ZM173 75.1628L173.431 137.156L177.818 138.876L177.367 152.716L166.581 146.526V60.5864L177.313 54.4226V72.6932L173 75.1628ZM13.9154 148.252L88.734 191.218V203.539L3.18277 154.416L13.9154 148.252ZM89.7434 17.6269L164.562 60.5931V146.519L89.7434 189.485L14.9247 146.519V60.5864L89.7434 17.6269ZM90.7527 191.218L165.571 148.252L176.304 154.416L90.7527 203.539V191.218ZM106.505 16.7367L157.685 46.0836L161.48 44.1829L176.297 52.6959L165.571 58.8597L90.8469 15.9403V3.61264L106.465 12.5204L106.505 16.7367ZM21.1624 46.3312L71.9993 16.9509V11.6437L88.8215 3.39847V15.8399L13.9759 58.8129L3.17604 52.5955L17.152 43.6676L21.1624 46.3312ZM5.76667 134.834L6.06274 75.397L2.0254 72.72L2.15998 54.3288L12.8993 60.5128V146.512L2.15325 152.683L2.01867 136.346L5.76667 134.834Z" fill="#E5004E"/>
<g filter="url(#filter1_f)">
<path d="M89.3545 205.262V191.153L165.188 147.652L177.533 155.294L89.3545 205.262Z" fill="#B16091"/>
</g>
<g filter="url(#filter2_f)">
<path d="M15.281 59.4737L2.34814 53.0072L17.0445 43.6016L21.7474 46.5408L48.4948 31.2566L71.7151 17.7359V11.8574L89.9386 3.03955V16.5602L15.281 59.4737Z" fill="#F0B8E7" fill-opacity="0.7"/>
</g>
<g filter="url(#filter3_f)">
<path d="M13.0876 145.147L1.91569 152.991L1.21213 136.588L5.74477 133.998L5.93113 104.964L5.89142 79.6456L1.19006 77.0177L2.59312 57.9495L13.4063 63.9936L13.0876 145.147Z" fill="#F0B8E7" fill-opacity="0.4"/>
</g>
<path d="M90.0821 190.758L165.152 147.417L165.008 60.485L89.7952 16.8949L14.7253 60.2365L14.863 147.172L90.0821 190.758Z" fill="url(#paint0_linear)"/>
<path fill-rule="evenodd" clip-rule="evenodd" d="M165.397 60.261L165.541 147.641L90.0822 191.207L14.4752 147.396L14.3368 60.0125L89.7959 16.4461L165.397 60.261ZM89.7952 17.3439L15.1147 60.4608L15.2517 146.948L90.0829 190.31L164.763 147.193L164.621 60.7093L89.7952 17.3439Z" fill="#7B7878"/>
<g filter="url(#filter4_d)">
<path d="M176.678 108.47V142.351L67.2432 207.806V173.925L176.678 108.47Z" fill="#1C0F1B" fill-opacity="0.7"/>
</g>
<g filter="url(#filter5_d)">
<path fill-rule="evenodd" clip-rule="evenodd" d="M177.359 107.271V142.736L66.5635 209.005V173.539L177.359 107.271ZM67.9235 174.31V206.606L175.999 141.965V109.669L67.9235 174.31Z" fill="#AF5E7F"/>
</g>
<path d="M184.437 103.826V137.707L176.679 142.35V108.463L184.437 103.826Z" fill="url(#paint1_linear)"/>
<path fill-rule="evenodd" clip-rule="evenodd" d="M184.632 103.484V137.817L176.484 142.693V108.353L184.632 103.484ZM176.873 108.574V142.008L184.243 137.597V104.169L176.873 108.574Z" fill="#CE3650"/>
<path d="M98.8547 179.812L97.5732 180.553L92.7148 177.901L95.0783 181.993L93.7968 182.734L90.2046 176.514L91.4862 175.774L96.3537 178.431L93.9853 174.33L95.2626 173.593L98.8547 179.812Z" fill="white"/>
<path d="M102.159 174.309L99.6988 175.73L100.661 177.396L103.549 175.729L104.143 176.758L99.974 179.166L96.3818 172.946L100.543 170.543L101.142 171.581L98.2629 173.244L99.119 174.726L101.58 173.305L102.159 174.309Z" fill="white"/>
<path d="M108.703 171.732L106.985 166.823L108.262 166.085L110.474 173.102L109.184 173.847L105.769 170.271L107.159 175.016L105.869 175.761L100.897 170.338L102.175 169.601L105.567 173.532L104.041 168.523L105.126 167.896L108.703 171.732Z" fill="white"/>
<path d="M117.003 165.942L114.543 167.363L116.011 169.904L114.729 170.645L111.137 164.425L115.187 162.086L115.786 163.124L113.018 164.723L113.946 166.329L116.406 164.908L117.003 165.942Z" fill="white"/>
<path d="M122.917 161.957C123.271 162.569 123.472 163.168 123.522 163.755C123.572 164.341 123.467 164.876 123.208 165.361C122.951 165.843 122.562 166.235 122.041 166.536C121.525 166.834 120.994 166.975 120.446 166.961C119.899 166.947 119.382 166.775 118.895 166.444C118.406 166.111 117.988 165.647 117.639 165.05L117.462 164.743C117.108 164.13 116.907 163.529 116.858 162.938C116.811 162.343 116.916 161.805 117.174 161.325C117.434 160.841 117.823 160.449 118.341 160.15C118.86 159.851 119.392 159.71 119.938 159.729C120.486 159.743 121.004 159.921 121.493 160.261C121.983 160.597 122.405 161.07 122.757 161.679L122.917 161.957ZM121.455 162.425C121.079 161.773 120.676 161.345 120.247 161.141C119.817 160.936 119.386 160.959 118.953 161.209C118.523 161.458 118.289 161.817 118.249 162.288C118.208 162.756 118.373 163.315 118.743 163.963L118.918 164.266C119.285 164.901 119.686 165.326 120.122 165.542C120.558 165.757 120.995 165.738 121.434 165.485C121.864 165.237 122.097 164.878 122.134 164.409C122.169 163.936 122.001 163.376 121.631 162.728L121.455 162.425Z" fill="white"/>
<path d="M126.55 160.781L125.529 161.371L126.844 163.648L125.563 164.388L121.971 158.168L124.282 156.833C125.017 156.409 125.678 156.245 126.266 156.343C126.854 156.44 127.32 156.788 127.666 157.386C127.911 157.81 128.023 158.218 128.002 158.61C127.983 158.997 127.835 159.382 127.559 159.766L130.373 161.53L130.407 161.59L129.032 162.385L126.55 160.781ZM124.93 160.333L125.964 159.736C126.286 159.55 126.488 159.325 126.571 159.06C126.652 158.793 126.609 158.516 126.443 158.228C126.274 157.935 126.057 157.753 125.792 157.682C125.529 157.609 125.226 157.672 124.881 157.871L123.852 158.466L124.93 160.333Z" fill="white"/>
<path d="M134.762 152.165L132.857 153.265L135.85 158.447L134.568 159.187L131.575 154.005L129.696 155.091L129.096 154.053L134.163 151.127L134.762 152.165Z" fill="white"/>
<path d="M143.552 153.999L142.27 154.739L140.731 152.073L138.232 153.517L139.771 156.182L138.49 156.922L134.898 150.702L136.179 149.962L137.635 152.483L140.134 151.039L138.678 148.519L139.96 147.779L143.552 153.999Z" fill="white"/>
<path d="M146.861 148.493L144.4 149.914L145.362 151.58L148.25 149.913L148.845 150.942L144.675 153.35L141.083 147.13L145.244 144.727L145.844 145.765L142.964 147.428L143.82 148.91L146.281 147.489L146.861 148.493Z" fill="white"/>
<path d="M151.775 149.25L148.183 143.03L150.097 141.924C150.644 141.609 151.204 141.45 151.777 141.45C152.351 141.445 152.891 141.6 153.396 141.916C153.9 142.229 154.319 142.675 154.653 143.253L154.818 143.539C155.152 144.117 155.329 144.7 155.35 145.288C155.373 145.875 155.24 146.417 154.95 146.915C154.66 147.413 154.244 147.82 153.702 148.137L151.775 149.25ZM150.064 143.328L152.462 147.48L153.082 147.122C153.583 146.833 153.872 146.448 153.947 145.967C154.023 145.487 153.888 144.94 153.541 144.327L153.351 143.998C152.986 143.366 152.579 142.963 152.129 142.79C151.678 142.614 151.201 142.671 150.697 142.962L150.064 143.328Z" fill="white"/>
<path d="M160.143 142.708L157.896 144.006L158.209 145.534L156.846 146.321L155.569 138.764L156.757 138.078L162.677 142.953L161.315 143.74L160.143 142.708ZM157.642 142.768L159.197 141.87L157.071 139.993L157.642 142.768Z" fill="white"/>
<path d="M162.788 138.332L162.464 134.782L163.865 133.973L164.113 139.116L165.416 141.372L164.113 142.125L162.81 139.869L158.479 137.084L159.884 136.272L162.788 138.332Z" fill="white"/>
</g>
<defs>
<filter id="filter0_f" x="83.7891" y="-4.00537" width="99.3975" height="69.3508" filterUnits="userSpaceOnUse" color-interpolation-filters="sRGB">
<feFlood flood-opacity="0" result="BackgroundImageFix"/>
<feBlend mode="normal" in="SourceGraphic" in2="BackgroundImageFix" result="shape"/>
<feGaussianBlur stdDeviation="3" result="effect1_foregroundBlur"/>
</filter>
<filter id="filter1_f" x="79.3545" y="137.652" width="108.178" height="77.6098" filterUnits="userSpaceOnUse" color-interpolation-filters="sRGB">
<feFlood flood-opacity="0" result="BackgroundImageFix"/>
<feBlend mode="normal" in="SourceGraphic" in2="BackgroundImageFix" result="shape"/>
<feGaussianBlur stdDeviation="5" result="effect1_foregroundBlur"/>
</filter>
<filter id="filter2_f" x="-7.65186" y="-6.96045" width="107.59" height="76.4341" filterUnits="userSpaceOnUse" color-interpolation-filters="sRGB">
<feFlood flood-opacity="0" result="BackgroundImageFix"/>
<feBlend mode="normal" in="SourceGraphic" in2="BackgroundImageFix" result="shape"/>
<feGaussianBlur stdDeviation="5" result="effect1_foregroundBlur"/>
</filter>
<filter id="filter3_f" x="-8.81006" y="47.9497" width="32.2162" height="115.041" filterUnits="userSpaceOnUse" color-interpolation-filters="sRGB">
<feFlood flood-opacity="0" result="BackgroundImageFix"/>
<feBlend mode="normal" in="SourceGraphic" in2="BackgroundImageFix" result="shape"/>
<feGaussianBlur stdDeviation="5" result="effect1_foregroundBlur"/>
</filter>
<filter id="filter4_d" x="65.2432" y="108.47" width="115.435" height="106.336" filterUnits="userSpaceOnUse" color-interpolation-filters="sRGB">
<feFlood flood-opacity="0" result="BackgroundImageFix"/>
<feColorMatrix in="SourceAlpha" type="matrix" values="0 0 0 0 0 0 0 0 0 0 0 0 0 0 0 0 0 0 127 0"/>
<feOffset dx="1" dy="4"/>
<feGaussianBlur stdDeviation="1.5"/>
<feColorMatrix type="matrix" values="0 0 0 0 0 0 0 0 0 0 0 0 0 0 0 0 0 0 0.77 0"/>
<feBlend mode="normal" in2="BackgroundImageFix" result="effect1_dropShadow"/>
<feBlend mode="normal" in="SourceGraphic" in2="effect1_dropShadow" result="shape"/>
</filter>
<filter id="filter5_d" x="64.5635" y="107.271" width="116.795" height="108.734" filterUnits="userSpaceOnUse" color-interpolation-filters="sRGB">
<feFlood flood-opacity="0" result="BackgroundImageFix"/>
<feColorMatrix in="SourceAlpha" type="matrix" values="0 0 0 0 0 0 0 0 0 0 0 0 0 0 0 0 0 0 127 0"/>
<feOffset dx="1" dy="4"/>
<feGaussianBlur stdDeviation="1.5"/>
<feColorMatrix type="matrix" values="0 0 0 0 0 0 0 0 0 0 0 0 0 0 0 0 0 0 0.77 0"/>
<feBlend mode="normal" in2="BackgroundImageFix" result="effect1_dropShadow"/>
<feBlend mode="normal" in="SourceGraphic" in2="effect1_dropShadow" result="shape"/>
</filter>
<linearGradient id="paint0_linear" x1="165.008" y1="60.485" x2="14.863" y2="147.172" gradientUnits="userSpaceOnUse">
<stop stop-color="#FF0000" stop-opacity="0"/>
<stop offset="1" stop-color="#FF5353" stop-opacity="0.47"/>
</linearGradient>
<linearGradient id="paint1_linear" x1="180.57" y1="138.449" x2="180.54" y2="107.559" gradientUnits="userSpaceOnUse">
<stop stop-color="#DD164E"/>
<stop offset="0.1339" stop-color="#D3154A"/>
<stop offset="0.3604" stop-color="#B9123F"/>
<stop offset="0.6518" stop-color="#8D0D2C"/>
<stop offset="0.9938" stop-color="#520713"/>
<stop offset="1" stop-color="#510713"/>
</linearGradient>
</defs>
</svg>
