<svg width="185" height="215" viewBox="0 0 185 215" fill="none" xmlns="http://www.w3.org/2000/svg">
<mask id="mask0" mask-type="alpha" maskUnits="userSpaceOnUse" x="0" y="0" width="185" height="215">
<rect y="0.347656" width="184.34" height="213.957" fill="#C4C4C4"/>
</mask>
<g mask="url(#mask0)">
<g filter="url(#filter0_f)">
<path d="M89.5959 16.1391L89.5959 2.06978L106.883 11.5574L106.7 16.8196L131.968 31.5504L157.678 45.3512L161.732 43.3242L176.993 52.7436L165.905 59.4206L89.5959 16.1391Z" fill="#F0C2F0"/>
</g>
<path d="M175.243 135.853L174.833 76.3891L179.132 73.9329V52.1821L161.348 41.9693L157.553 43.87L108.317 15.6341L108.27 11.411L89.5841 0.763184L69.7877 10.4674V15.8683L21.0368 44.044L16.9726 41.3469L-0.0313774 52.2156L-0.192871 73.866L3.84447 76.543L3.55513 133.557L-0.192871 135.083L-0.0313774 155.074L0.47329 155.361L89.5438 206.513L178.614 155.361C178.614 155.361 178.614 155.361 178.621 155.361H178.628L179.112 155.08L179.684 137.593L175.243 135.853ZM172.807 75.238L173.238 137.231L177.625 138.951L177.174 152.791L166.388 146.601V60.6616L177.12 54.4977V72.7684L172.807 75.238ZM13.7225 148.327L88.5412 191.294V203.615L2.9899 154.491L13.7225 148.327ZM89.5505 17.7021L164.369 60.6683V146.594L89.5505 189.56L14.7318 146.594V60.6616L89.5505 17.7021ZM90.5598 191.294L165.378 148.327L176.111 154.491L90.5598 203.615V191.294ZM106.312 16.8119L157.492 46.1588L161.287 44.2581L176.104 52.7711L165.378 58.9349L90.654 16.0155V3.68783L106.272 12.5956L106.312 16.8119ZM20.9695 46.4064L71.8064 17.0261V11.7189L88.6286 3.47367V15.9151L13.7831 58.8881L2.98317 52.6707L16.9591 43.7428L20.9695 46.4064ZM5.5738 134.909L5.86987 75.4722L1.83253 72.7952L1.96711 54.404L12.7064 60.588V146.587L1.96038 152.758L1.8258 136.421L5.5738 134.909Z" fill="#E5004E"/>
<g filter="url(#filter1_f)">
<path d="M89.1611 205.337V191.228L164.994 147.727L177.339 155.369L89.1611 205.337Z" fill="#B16091"/>
</g>
<g filter="url(#filter2_f)">
<path d="M15.0881 59.5498L2.15527 53.0834L16.8517 43.6777L21.5545 46.617L48.3019 31.3328L71.5222 17.8121V11.9336L89.7457 3.11572V16.6364L15.0881 59.5498Z" fill="#F0B8E7" fill-opacity="0.7"/>
</g>
<g filter="url(#filter3_f)">
<path d="M12.8942 145.222L1.72233 153.066L1.01877 136.663L5.55141 134.073L5.73777 105.039L5.69806 79.7208L0.996703 77.0929L2.39976 58.0247L13.2129 64.0688L12.8942 145.222Z" fill="#F0B8E7" fill-opacity="0.4"/>
</g>
<path d="M89.8893 190.834L164.959 147.492L164.816 60.5602L89.6023 16.9701L14.5324 60.3117L14.6702 147.247L89.8893 190.834Z" fill="url(#paint0_linear)"/>
<path fill-rule="evenodd" clip-rule="evenodd" d="M165.204 60.3362L165.348 147.716L89.8888 191.283L14.2819 147.471L14.1434 60.0877L89.6026 16.5213L165.204 60.3362ZM89.6018 17.4191L14.9213 60.536L15.0583 147.023L89.8895 190.385L164.57 147.268L164.427 60.7845L89.6018 17.4191Z" fill="#7B7878"/>
<g filter="url(#filter4_d)">
<path d="M176.486 108.545V142.426L67.0503 207.881V174L176.486 108.545Z" fill="#1C0F1B" fill-opacity="0.7"/>
</g>
<g filter="url(#filter5_d)">
<path fill-rule="evenodd" clip-rule="evenodd" d="M177.165 107.346V142.812L66.3701 209.08V173.615L177.165 107.346ZM67.7302 174.386V206.682L175.805 142.041V109.744L67.7302 174.386Z" fill="#AF5E7F"/>
</g>
<path d="M184.244 103.902V137.783L176.485 142.426V108.539L184.244 103.902Z" fill="url(#paint1_linear)"/>
<path fill-rule="evenodd" clip-rule="evenodd" d="M184.438 103.559V137.893L176.291 142.768V108.429L184.438 103.559ZM176.68 108.649V142.083L184.05 137.672V104.244L176.68 108.649Z" fill="#CE3650"/>
<path d="M74.2761 192.274L75.5417 194.465L74.2601 195.205L70.668 188.985L73.0944 187.584C73.5615 187.314 74.021 187.163 74.4728 187.13C74.9275 187.095 75.3415 187.181 75.7149 187.387C76.0866 187.59 76.3884 187.892 76.6204 188.294C76.9723 188.903 77.041 189.505 76.8263 190.1C76.6128 190.691 76.1372 191.199 75.3996 191.625L74.2761 192.274ZM73.6766 191.236L74.8214 190.574C75.1604 190.379 75.372 190.15 75.4565 189.889C75.5438 189.625 75.5019 189.346 75.3309 189.05C75.1549 188.745 74.9229 188.55 74.6349 188.466C74.347 188.382 74.0433 188.428 73.7239 188.605L72.5491 189.283L73.6766 191.236Z" fill="white"/>
<path d="M80.5946 190.174L83.3159 188.602L83.9104 189.632L79.9076 191.944L76.3155 185.724L77.5971 184.984L80.5946 190.174Z" fill="white"/>
<path d="M87.5063 185.846L85.2593 187.144L85.5722 188.672L84.2095 189.459L82.9327 181.902L84.1203 181.216L90.0406 186.092L88.6779 186.879L87.5063 185.846ZM85.0058 185.906L86.5608 185.008L84.4344 183.131L85.0058 185.906Z" fill="white"/>
<path d="M91.7984 178.166L89.8931 179.267L92.8857 184.449L91.6042 185.189L88.6115 180.007L86.7319 181.092L86.1324 180.054L91.1989 177.128L91.7984 178.166Z" fill="white"/>
<path d="M97.8001 178.221L95.3394 179.642L96.8074 182.184L95.5258 182.924L91.9336 176.704L95.9834 174.365L96.5829 175.403L93.8147 177.002L94.7424 178.608L97.203 177.187L97.8001 178.221Z" fill="white"/>
<path d="M103.713 174.236C104.067 174.848 104.269 175.448 104.319 176.034C104.369 176.62 104.264 177.156 104.004 177.64C103.748 178.122 103.359 178.514 102.837 178.815C102.322 179.113 101.79 179.255 101.243 179.24C100.695 179.226 100.178 179.054 99.6913 178.724C99.2027 178.391 98.7843 177.926 98.436 177.329L98.2584 177.022C97.9048 176.41 97.7035 175.808 97.6547 175.217C97.6071 174.622 97.7126 174.084 97.971 173.605C98.2307 173.12 98.6197 172.729 99.138 172.429C99.6564 172.13 100.189 171.99 100.735 172.008C101.282 172.023 101.801 172.2 102.29 172.54C102.78 172.876 103.201 173.349 103.553 173.958L103.713 174.236ZM102.252 174.704C101.875 174.052 101.472 173.624 101.043 173.42C100.614 173.216 100.183 173.239 99.7499 173.489C99.3198 173.737 99.0851 174.097 99.0457 174.568C99.0046 175.036 99.1693 175.594 99.5398 176.242L99.7149 176.545C100.082 177.18 100.483 177.606 100.919 177.821C101.355 178.036 101.792 178.018 102.231 177.764C102.661 177.516 102.894 177.157 102.93 176.688C102.965 176.216 102.798 175.656 102.427 175.007L102.252 174.704Z" fill="white"/>
<path d="M107.347 173.06L106.326 173.65L107.641 175.927L106.359 176.667L102.767 170.447L105.078 169.113C105.813 168.688 106.474 168.525 107.062 168.622C107.65 168.719 108.117 169.067 108.462 169.665C108.707 170.089 108.819 170.497 108.799 170.889C108.779 171.276 108.632 171.662 108.356 172.045L111.169 173.81L111.204 173.869L109.828 174.664L107.347 173.06ZM105.726 172.612L106.76 172.015C107.082 171.829 107.284 171.604 107.367 171.34C107.448 171.073 107.406 170.795 107.24 170.508C107.07 170.214 106.853 170.032 106.588 169.961C106.326 169.888 106.022 169.952 105.678 170.151L104.648 170.745L105.726 172.612Z" fill="white"/>
<path d="M110.03 166.253L114.233 169.842L113.216 164.413L114.9 163.441L118.492 169.661L117.206 170.403L116.224 168.703L114.657 165.694L115.655 171.299L114.775 171.807L110.426 168.143L112.247 171L113.229 172.7L111.947 173.44L108.355 167.22L110.03 166.253Z" fill="white"/>
<path d="M121.79 167.756L118.197 161.536L120.111 160.431C120.658 160.115 121.218 159.957 121.791 159.956C122.366 159.951 122.905 160.106 123.411 160.422C123.914 160.735 124.333 161.181 124.667 161.759L124.832 162.045C125.166 162.623 125.343 163.207 125.364 163.795C125.387 164.381 125.254 164.923 124.964 165.421C124.675 165.919 124.259 166.326 123.716 166.643L121.79 167.756ZM120.079 161.834L122.477 165.986L123.096 165.628C123.597 165.339 123.886 164.954 123.961 164.474C124.037 163.993 123.902 163.446 123.556 162.834L123.366 162.505C123.001 161.873 122.593 161.47 122.144 161.296C121.693 161.12 121.215 161.178 120.711 161.469L120.079 161.834Z" fill="white"/>
<path d="M129.665 159.613L127.205 161.034L128.167 162.7L131.055 161.032L131.649 162.062L127.48 164.47L123.888 158.25L128.049 155.847L128.648 156.885L125.769 158.548L126.625 160.03L129.085 158.609L129.665 159.613Z" fill="white"/>
<path d="M135.172 158.318L132.925 159.616L133.238 161.144L131.876 161.931L130.599 154.374L131.786 153.688L137.707 158.563L136.344 159.35L135.172 158.318ZM132.672 158.378L134.227 157.48L132.101 155.603L132.672 158.378Z" fill="white"/>
<path d="M138.975 156.458L141.696 154.887L142.291 155.916L138.288 158.228L134.696 152.008L135.977 151.268L138.975 156.458Z" fill="white"/>
<path d="M146.616 151.362L145.324 145.87L146.751 145.046L148.177 152.516L146.84 153.289L141.091 148.315L142.513 147.493L146.616 151.362Z" fill="white"/>
<path d="M153.379 147.803L151.132 149.101L151.445 150.629L150.083 151.416L148.806 143.859L149.993 143.173L155.914 148.048L154.551 148.835L153.379 147.803ZM150.879 147.863L152.434 146.965L150.308 145.088L150.879 147.863Z" fill="white"/>
<path d="M157.182 145.943L159.903 144.372L160.498 145.401L156.495 147.713L152.903 141.493L154.184 140.753L157.182 145.943Z" fill="white"/>
<path d="M162.25 136.095L164.616 140.192C165.009 140.872 165.106 141.534 164.907 142.176C164.712 142.817 164.245 143.351 163.507 143.777C162.781 144.196 162.093 144.337 161.444 144.199C160.795 144.062 160.272 143.659 159.875 142.992L157.482 138.848L158.764 138.108L161.135 142.213C161.37 142.621 161.639 142.862 161.941 142.938C162.244 143.01 162.568 142.946 162.913 142.747C163.633 142.331 163.78 141.741 163.354 140.977L160.964 136.837L162.25 136.095Z" fill="white"/>
<path d="M169.078 136.851L166.617 138.272L167.58 139.938L170.467 138.27L171.062 139.3L166.893 141.708L163.3 135.488L167.461 133.085L168.061 134.123L165.182 135.786L166.038 137.268L168.498 135.847L169.078 136.851Z" fill="white"/>
</g>
<defs>
<filter id="filter0_f" x="83.5957" y="-3.93018" width="99.3975" height="69.3508" filterUnits="userSpaceOnUse" color-interpolation-filters="sRGB">
<feFlood flood-opacity="0" result="BackgroundImageFix"/>
<feBlend mode="normal" in="SourceGraphic" in2="BackgroundImageFix" result="shape"/>
<feGaussianBlur stdDeviation="3" result="effect1_foregroundBlur"/>
</filter>
<filter id="filter1_f" x="79.1611" y="137.727" width="108.178" height="77.6098" filterUnits="userSpaceOnUse" color-interpolation-filters="sRGB">
<feFlood flood-opacity="0" result="BackgroundImageFix"/>
<feBlend mode="normal" in="SourceGraphic" in2="BackgroundImageFix" result="shape"/>
<feGaussianBlur stdDeviation="5" result="effect1_foregroundBlur"/>
</filter>
<filter id="filter2_f" x="-7.84473" y="-6.88428" width="107.59" height="76.4341" filterUnits="userSpaceOnUse" color-interpolation-filters="sRGB">
<feFlood flood-opacity="0" result="BackgroundImageFix"/>
<feBlend mode="normal" in="SourceGraphic" in2="BackgroundImageFix" result="shape"/>
<feGaussianBlur stdDeviation="5" result="effect1_foregroundBlur"/>
</filter>
<filter id="filter3_f" x="-9.00342" y="48.0249" width="32.2162" height="115.041" filterUnits="userSpaceOnUse" color-interpolation-filters="sRGB">
<feFlood flood-opacity="0" result="BackgroundImageFix"/>
<feBlend mode="normal" in="SourceGraphic" in2="BackgroundImageFix" result="shape"/>
<feGaussianBlur stdDeviation="5" result="effect1_foregroundBlur"/>
</filter>
<filter id="filter4_d" x="65.0503" y="108.545" width="115.435" height="106.336" filterUnits="userSpaceOnUse" color-interpolation-filters="sRGB">
<feFlood flood-opacity="0" result="BackgroundImageFix"/>
<feColorMatrix in="SourceAlpha" type="matrix" values="0 0 0 0 0 0 0 0 0 0 0 0 0 0 0 0 0 0 127 0"/>
<feOffset dx="1" dy="4"/>
<feGaussianBlur stdDeviation="1.5"/>
<feColorMatrix type="matrix" values="0 0 0 0 0 0 0 0 0 0 0 0 0 0 0 0 0 0 0.77 0"/>
<feBlend mode="normal" in2="BackgroundImageFix" result="effect1_dropShadow"/>
<feBlend mode="normal" in="SourceGraphic" in2="effect1_dropShadow" result="shape"/>
</filter>
<filter id="filter5_d" x="64.3701" y="107.346" width="116.795" height="108.734" filterUnits="userSpaceOnUse" color-interpolation-filters="sRGB">
<feFlood flood-opacity="0" result="BackgroundImageFix"/>
<feColorMatrix in="SourceAlpha" type="matrix" values="0 0 0 0 0 0 0 0 0 0 0 0 0 0 0 0 0 0 127 0"/>
<feOffset dx="1" dy="4"/>
<feGaussianBlur stdDeviation="1.5"/>
<feColorMatrix type="matrix" values="0 0 0 0 0 0 0 0 0 0 0 0 0 0 0 0 0 0 0.77 0"/>
<feBlend mode="normal" in2="BackgroundImageFix" result="effect1_dropShadow"/>
<feBlend mode="normal" in="SourceGraphic" in2="effect1_dropShadow" result="shape"/>
</filter>
<linearGradient id="paint0_linear" x1="164.816" y1="60.5602" x2="14.6702" y2="147.247" gradientUnits="userSpaceOnUse">
<stop stop-color="#FF0000" stop-opacity="0"/>
<stop offset="1" stop-color="#FF5353" stop-opacity="0.47"/>
</linearGradient>
<linearGradient id="paint1_linear" x1="180.376" y1="138.525" x2="180.347" y2="107.634" gradientUnits="userSpaceOnUse">
<stop stop-color="#DD164E"/>
<stop offset="0.1339" stop-color="#D3154A"/>
<stop offset="0.3604" stop-color="#B9123F"/>
<stop offset="0.6518" stop-color="#8D0D2C"/>
<stop offset="0.9938" stop-color="#520713"/>
<stop offset="1" stop-color="#510713"/>
</linearGradient>
</defs>
</svg>
