<svg width="186" height="214" viewBox="0 0 186 214" fill="none" xmlns="http://www.w3.org/2000/svg">
<mask id="mask0" mask-type="alpha" maskUnits="userSpaceOnUse" x="0" y="0" width="186" height="214">
<rect x="0.708008" y="0.0947266" width="184.439" height="213.211" fill="#C4C4C4"/>
</mask>
<g mask="url(#mask0)">
<g filter="url(#filter0_f)">
<path d="M90.4109 14.8944L90.4109 0.825148L107.698 10.3128L107.515 15.5749L132.783 30.3058L158.493 44.1065L162.547 42.0796L177.808 51.499L166.72 58.176L90.4109 14.8944Z" fill="#F0C2F0"/>
</g>
<path d="M176.092 135.06L175.682 75.5966L179.981 73.1405V51.3896L162.197 41.1768L158.402 43.0775L109.167 14.8416L109.119 10.6186L90.4333 -0.0292969L70.6368 9.67491V15.0758L21.8859 43.2515L17.8217 40.5544L0.817744 51.4231L0.65625 73.0735L4.69359 75.7506L4.40425 132.764L0.65625 134.29L0.817744 154.281L1.32241 154.569L90.3929 205.72L179.463 154.569C179.463 154.569 179.463 154.569 179.47 154.569H179.477L179.961 154.288L180.533 136.8L176.092 135.06ZM173.656 74.4455L174.087 136.439L178.474 138.159L178.023 151.999L167.237 145.808V59.8691L177.97 53.7053V71.9759L173.656 74.4455ZM14.5716 147.535L89.3903 190.501V202.822L3.83902 153.699L14.5716 147.535ZM90.3996 16.9096L165.218 59.8758V145.802L90.3996 188.768L15.581 145.802V59.8691L90.3996 16.9096ZM91.4089 190.501L166.228 147.535L176.96 153.699L91.4089 202.822V190.501ZM107.161 16.0195L158.341 45.3663L162.136 43.4656L176.953 51.9786L166.228 58.1424L91.5032 15.223V2.89535L107.121 11.8031L107.161 16.0195ZM21.8186 45.614L72.6555 16.2336V10.9264L89.4778 2.68119V15.1227L14.6322 58.0956L3.83229 51.8782L17.8082 42.9503L21.8186 45.614ZM6.42292 134.116L6.71899 74.6797L2.68165 72.0027L2.81623 53.6116L13.5556 59.7955V145.795L2.8095 151.965L2.67492 135.629L6.42292 134.116Z" fill="#E5004E"/>
<g filter="url(#filter1_f)">
<path d="M89.9756 204.092V189.984L165.809 146.482L178.154 154.125L89.9756 204.092Z" fill="#B16091"/>
</g>
<g filter="url(#filter2_f)">
<path d="M15.9025 58.3042L2.96973 51.8378L17.6661 42.4321L22.3689 45.3714L49.1164 30.0872L72.3366 16.5665V10.6879L90.5602 1.87012V15.3908L15.9025 58.3042Z" fill="#F0B8E7" fill-opacity="0.7"/>
</g>
<g filter="url(#filter3_f)">
<path d="M13.7087 143.977L2.53678 151.821L1.83323 135.418L6.36587 132.828L6.55223 103.794L6.51252 78.4762L1.81116 75.8483L3.21421 56.78L14.0273 62.8242L13.7087 143.977Z" fill="#F0B8E7" fill-opacity="0.4"/>
</g>
<path d="M90.7042 189.589L165.774 146.247L165.631 59.3156L90.4172 15.7255L15.3474 59.0671L15.4851 146.002L90.7042 189.589Z" fill="url(#paint0_linear)"/>
<path fill-rule="evenodd" clip-rule="evenodd" d="M166.018 59.0916L166.162 146.472L90.7033 190.038L15.0963 146.226L14.9579 58.843L90.417 15.2767L166.018 59.0916ZM90.4163 16.1745L15.7358 59.2913L15.8728 145.778L90.704 189.14L165.385 146.023L165.242 59.5398L90.4163 16.1745Z" fill="#7B7878"/>
<g filter="url(#filter4_d)">
<path d="M177.299 107.3V141.181L67.8643 206.636V172.755L177.299 107.3Z" fill="#1C0F1B" fill-opacity="0.7"/>
</g>
<g filter="url(#filter5_d)">
<path fill-rule="evenodd" clip-rule="evenodd" d="M177.98 106.102V141.567L67.1846 207.836V172.37L177.98 106.102ZM68.5446 173.141V205.438L176.62 140.796V108.5L68.5446 173.141Z" fill="#AF5E7F"/>
</g>
<path d="M185.058 102.657V136.538L177.3 141.181V107.294L185.058 102.657Z" fill="url(#paint1_linear)"/>
<path fill-rule="evenodd" clip-rule="evenodd" d="M185.253 102.314V136.648L177.105 141.524V107.184L185.253 102.314ZM177.494 107.404V140.838L184.864 136.428V102.999L177.494 107.404Z" fill="#CE3650"/>
<path d="M83.2388 174.839L82.2964 175.384L83.5102 177.485L82.3272 178.169L79.0114 172.427L81.1447 171.195C81.823 170.803 82.4334 170.652 82.9761 170.742C83.5187 170.832 83.9494 171.153 84.2683 171.705C84.4945 172.097 84.5981 172.473 84.579 172.835C84.5611 173.192 84.4247 173.548 84.1699 173.902L86.7671 175.531L86.799 175.586L85.5292 176.319L83.2388 174.839ZM81.743 174.425L82.6973 173.874C82.9943 173.703 83.1811 173.495 83.2575 173.251C83.3325 173.004 83.2933 172.748 83.1399 172.483C82.9836 172.212 82.783 172.044 82.5383 171.978C82.2963 171.911 82.0162 171.97 81.6981 172.153L80.7478 172.702L81.743 174.425Z" fill="white"/>
<path d="M89.5024 170.707L87.2311 172.018L88.1192 173.556L90.7849 172.017L91.3338 172.967L87.4851 175.19L84.1693 169.448L88.01 167.23L88.5634 168.188L85.9056 169.723L86.6959 171.092L88.9672 169.78L89.5024 170.707Z" fill="white"/>
<path d="M93.3272 169.918L92.1348 164.848L93.4518 164.087L94.7684 170.984L93.5341 171.696L88.2269 167.105L89.5401 166.347L93.3272 169.918Z" fill="white"/>
<path d="M99.3292 165.031L97.0578 166.343L97.946 167.881L100.612 166.342L101.161 167.292L97.3118 169.515L93.996 163.773L97.8368 161.555L98.3902 162.513L95.7324 164.048L96.5226 165.417L98.794 164.105L99.3292 165.031Z" fill="white"/>
<path d="M106.523 164.195L105.34 164.878L100.856 162.43L103.038 166.208L101.855 166.891L98.5387 161.15L99.7217 160.466L104.215 162.92L102.029 159.134L103.208 158.453L106.523 164.195Z" fill="white"/>
<path d="M108.586 155.347L110.77 159.129C111.133 159.757 111.223 160.368 111.04 160.961C110.859 161.552 110.428 162.045 109.747 162.438C109.077 162.825 108.442 162.955 107.843 162.828C107.244 162.701 106.761 162.329 106.395 161.714L104.186 157.888L105.369 157.205L107.557 160.995C107.774 161.371 108.022 161.594 108.301 161.664C108.581 161.73 108.88 161.671 109.198 161.488C109.864 161.104 109.999 160.559 109.606 159.854L107.399 156.032L108.586 155.347Z" fill="white"/>
<path d="M114.89 156.045L112.618 157.357L113.506 158.895L116.172 157.355L116.721 158.305L112.872 160.528L109.556 154.787L113.397 152.569L113.951 153.527L111.293 155.062L112.083 156.43L114.354 155.118L114.89 156.045Z" fill="white"/>
<path d="M119.995 157.072L119.147 157.562L117.66 150.107L118.508 149.617L119.995 157.072Z" fill="white"/>
<path d="M91.1713 183.075C91.4834 183.719 91.5355 184.337 91.3278 184.93C91.1226 185.522 90.6836 186.012 90.0106 186.401C89.2745 186.826 88.5521 186.914 87.8434 186.664C87.1359 186.41 86.5323 185.85 86.0328 184.986L85.8301 184.635C85.5113 184.083 85.3277 183.54 85.2793 183.007C85.2309 182.474 85.3223 181.992 85.5534 181.56C85.7856 181.125 86.141 180.769 86.6194 180.493C87.2819 180.11 87.918 179.979 88.5278 180.1C89.1377 180.221 89.6593 180.584 90.0929 181.189L88.9099 181.873C88.6669 181.519 88.4082 181.311 88.1338 181.248C87.8605 181.182 87.5424 181.253 87.1796 181.463C86.7853 181.69 86.5716 182.003 86.5384 182.401C86.5063 182.795 86.6592 183.29 86.997 183.887L87.2475 184.321C87.6058 184.941 87.9611 185.341 88.3132 185.52C88.668 185.697 89.0478 185.669 89.4526 185.435C89.818 185.224 90.0423 184.984 90.1254 184.715C90.2096 184.442 90.1639 184.123 89.9883 183.758L91.1713 183.075Z" fill="white"/>
<path d="M96.1861 179.075C96.5125 179.64 96.6988 180.193 96.745 180.734C96.7911 181.275 96.6944 181.77 96.4547 182.217C96.2176 182.662 95.8585 183.024 95.3774 183.301C94.9016 183.576 94.411 183.707 93.9056 183.694C93.4002 183.681 92.9228 183.522 92.4733 183.217C92.0223 182.91 91.6361 182.481 91.3146 181.93L91.1506 181.646C90.8242 181.081 90.6385 180.526 90.5934 179.98C90.5495 179.431 90.6468 178.934 90.8854 178.492C91.1251 178.045 91.4842 177.683 91.9626 177.407C92.4411 177.13 92.9324 177.001 93.4367 177.018C93.9421 177.031 94.4205 177.195 94.8719 177.509C95.3244 177.819 95.7132 178.256 96.0381 178.818L96.1861 179.075ZM94.837 179.507C94.4893 178.905 94.1174 178.509 93.7211 178.321C93.3249 178.133 92.927 178.154 92.5274 178.385C92.1304 178.614 91.9137 178.946 91.8773 179.381C91.8394 179.813 91.9914 180.328 92.3334 180.926L92.4951 181.206C92.8337 181.792 93.2041 182.185 93.6065 182.384C94.0088 182.583 94.4123 182.565 94.8172 182.331C95.2142 182.102 95.4295 181.771 95.4633 181.338C95.4956 180.902 95.3407 180.385 94.9987 179.787L94.837 179.507Z" fill="white"/>
<path d="M96.8584 174.684L100.738 177.997L99.8002 172.986L101.354 172.088L104.67 177.83L103.483 178.515L102.576 176.946L101.13 174.168L102.051 179.342L101.239 179.811L97.2245 176.429L98.9051 179.066L99.8115 180.635L98.6285 181.319L95.3127 175.577L96.8584 174.684Z" fill="white"/>
<path d="M103.933 170.599L107.812 173.911L106.874 168.9L108.428 168.003L111.744 173.744L110.557 174.43L109.651 172.86L108.204 170.083L109.126 175.256L108.313 175.725L104.299 172.344L105.979 174.98L106.886 176.55L105.703 177.233L102.387 171.492L103.933 170.599Z" fill="white"/>
<path d="M114.035 172.421L112.852 173.104L109.536 167.363L110.719 166.68L114.035 172.421Z" fill="white"/>
<path d="M117.242 168.56C117.113 168.336 116.936 168.211 116.71 168.184C116.482 168.154 116.125 168.192 115.639 168.297C115.152 168.4 114.751 168.456 114.438 168.465C113.582 168.49 112.982 168.203 112.638 167.607C112.458 167.296 112.386 166.97 112.42 166.628C112.455 166.282 112.596 165.946 112.843 165.622C113.092 165.295 113.421 165.014 113.828 164.779C114.238 164.542 114.647 164.406 115.054 164.37C115.46 164.332 115.829 164.398 116.162 164.567C116.497 164.735 116.764 164.991 116.963 165.335L115.78 166.018C115.628 165.755 115.428 165.599 115.178 165.55C114.928 165.499 114.653 165.56 114.353 165.733C114.064 165.9 113.875 166.091 113.786 166.307C113.695 166.521 113.708 166.728 113.823 166.927C113.931 167.114 114.114 167.217 114.374 167.235C114.636 167.252 114.982 167.21 115.411 167.109C116.201 166.923 116.836 166.891 117.317 167.013C117.797 167.135 118.167 167.42 118.425 167.867C118.712 168.363 118.749 168.862 118.537 169.363C118.324 169.862 117.899 170.295 117.263 170.662C116.821 170.917 116.373 171.069 115.917 171.118C115.46 171.165 115.055 171.103 114.7 170.932C114.349 170.761 114.066 170.489 113.852 170.119L115.039 169.433C115.404 170.067 115.966 170.165 116.723 169.728C117.004 169.565 117.191 169.382 117.284 169.178C117.375 168.971 117.361 168.765 117.242 168.56Z" fill="white"/>
<path d="M122.211 165.69C122.082 165.467 121.904 165.342 121.678 165.314C121.451 165.285 121.094 165.322 120.608 165.428C120.12 165.531 119.72 165.587 119.406 165.596C118.551 165.62 117.951 165.334 117.606 164.737C117.427 164.427 117.354 164.101 117.388 163.759C117.423 163.413 117.564 163.077 117.811 162.752C118.061 162.426 118.389 162.145 118.797 161.909C119.207 161.672 119.616 161.536 120.023 161.501C120.429 161.463 120.798 161.529 121.13 161.698C121.465 161.865 121.732 162.121 121.931 162.465L120.748 163.149C120.597 162.886 120.396 162.73 120.147 162.681C119.896 162.629 119.621 162.69 119.321 162.863C119.032 163.03 118.843 163.222 118.754 163.438C118.664 163.651 118.676 163.858 118.791 164.058C118.899 164.245 119.083 164.347 119.342 164.366C119.605 164.382 119.95 164.341 120.379 164.24C121.169 164.054 121.805 164.022 122.285 164.144C122.766 164.266 123.135 164.55 123.393 164.997C123.68 165.494 123.718 165.993 123.506 166.494C123.292 166.992 122.868 167.425 122.231 167.793C121.79 168.048 121.341 168.2 120.886 168.249C120.429 168.295 120.023 168.233 119.669 168.063C119.317 167.891 119.034 167.62 118.82 167.249L120.007 166.564C120.373 167.197 120.935 167.295 121.692 166.858C121.973 166.696 122.16 166.512 122.252 166.308C122.343 166.101 122.329 165.895 122.211 165.69Z" fill="white"/>
<path d="M126.33 165.32L125.147 166.003L121.831 160.262L123.014 159.579L126.33 165.32Z" fill="white"/>
<path d="M130.564 159.221C130.89 159.786 131.077 160.339 131.123 160.88C131.169 161.421 131.072 161.916 130.832 162.363C130.595 162.808 130.236 163.17 129.755 163.447C129.279 163.722 128.789 163.853 128.283 163.84C127.778 163.827 127.301 163.668 126.851 163.363C126.4 163.056 126.014 162.627 125.692 162.076L125.528 161.792C125.202 161.227 125.016 160.672 124.971 160.126C124.927 159.577 125.025 159.08 125.263 158.638C125.503 158.191 125.862 157.829 126.34 157.553C126.819 157.276 127.31 157.147 127.815 157.164C128.32 157.177 128.798 157.341 129.25 157.655C129.702 157.965 130.091 158.402 130.416 158.964L130.564 159.221ZM129.215 159.653C128.867 159.051 128.495 158.655 128.099 158.467C127.703 158.279 127.305 158.3 126.905 158.531C126.508 158.76 126.292 159.092 126.255 159.527C126.217 159.959 126.369 160.474 126.711 161.072L126.873 161.352C127.212 161.938 127.582 162.331 127.984 162.53C128.387 162.729 128.79 162.711 129.195 162.477C129.592 162.248 129.807 161.917 129.841 161.484C129.873 161.048 129.719 160.531 129.377 159.933L129.215 159.653Z" fill="white"/>
<path d="M137.675 158.768L136.492 159.451L132.008 157.004L134.189 160.781L133.006 161.465L129.691 155.723L130.874 155.04L135.367 157.493L133.18 153.708L134.359 153.027L137.675 158.768Z" fill="white"/>
<path d="M142.737 152.527L140.465 153.839L141.354 155.377L144.019 153.837L144.568 154.787L140.719 157.01L137.404 151.269L141.244 149.051L141.798 150.009L139.14 151.544L139.93 152.912L142.202 151.6L142.737 152.527Z" fill="white"/>
<path d="M147.82 151.332L145.746 152.53L146.035 153.94L144.777 154.667L143.599 147.691L144.695 147.058L150.16 151.558L148.902 152.285L147.82 151.332ZM145.512 151.387L146.948 150.558L144.985 148.826L145.512 151.387Z" fill="white"/>
<path d="M151.608 147.919L150.665 148.463L151.879 150.565L150.696 151.248L147.38 145.507L149.514 144.275C150.192 143.883 150.802 143.732 151.345 143.822C151.888 143.912 152.318 144.233 152.637 144.785C152.863 145.176 152.967 145.553 152.948 145.915C152.93 146.272 152.794 146.628 152.539 146.982L155.136 148.611L155.168 148.666L153.898 149.399L151.608 147.919ZM150.112 147.505L151.066 146.954C151.363 146.783 151.55 146.575 151.626 146.331C151.701 146.084 151.662 145.828 151.509 145.563C151.352 145.292 151.152 145.124 150.907 145.058C150.665 144.991 150.385 145.049 150.067 145.233L149.117 145.782L150.112 147.505Z" fill="white"/>
<path d="M160.523 145.573L159.34 146.256L154.855 143.809L157.037 147.586L155.854 148.27L152.538 142.528L153.721 141.845L158.214 144.298L156.028 140.513L157.207 139.832L160.523 145.573Z" fill="white"/>
<path d="M163.573 140.493L161.302 141.805L162.19 143.343L164.856 141.804L165.405 142.754L161.556 144.977L158.24 139.235L162.081 137.017L162.634 137.975L159.977 139.51L160.767 140.878L163.038 139.567L163.573 140.493Z" fill="white"/>
<path d="M166.099 142.353L162.783 136.612L164.549 135.591C165.054 135.3 165.571 135.154 166.1 135.153C166.63 135.149 167.129 135.292 167.595 135.584C168.06 135.873 168.446 136.284 168.755 136.818L168.907 137.082C169.215 137.615 169.379 138.154 169.398 138.697C169.42 139.238 169.297 139.738 169.029 140.198C168.762 140.657 168.378 141.033 167.877 141.326L166.099 142.353ZM164.519 136.887L166.733 140.72L167.305 140.389C167.767 140.122 168.034 139.767 168.103 139.323C168.173 138.88 168.048 138.375 167.729 137.81L167.553 137.506C167.216 136.922 166.84 136.55 166.425 136.39C166.009 136.228 165.568 136.281 165.103 136.55L164.519 136.887Z" fill="white"/>
</g>
<defs>
<filter id="filter0_f" x="84.4106" y="-5.1748" width="99.3975" height="69.3508" filterUnits="userSpaceOnUse" color-interpolation-filters="sRGB">
<feFlood flood-opacity="0" result="BackgroundImageFix"/>
<feBlend mode="normal" in="SourceGraphic" in2="BackgroundImageFix" result="shape"/>
<feGaussianBlur stdDeviation="3" result="effect1_foregroundBlur"/>
</filter>
<filter id="filter1_f" x="79.9756" y="136.482" width="108.178" height="77.6098" filterUnits="userSpaceOnUse" color-interpolation-filters="sRGB">
<feFlood flood-opacity="0" result="BackgroundImageFix"/>
<feBlend mode="normal" in="SourceGraphic" in2="BackgroundImageFix" result="shape"/>
<feGaussianBlur stdDeviation="5" result="effect1_foregroundBlur"/>
</filter>
<filter id="filter2_f" x="-7.03027" y="-8.12988" width="107.59" height="76.4341" filterUnits="userSpaceOnUse" color-interpolation-filters="sRGB">
<feFlood flood-opacity="0" result="BackgroundImageFix"/>
<feBlend mode="normal" in="SourceGraphic" in2="BackgroundImageFix" result="shape"/>
<feGaussianBlur stdDeviation="5" result="effect1_foregroundBlur"/>
</filter>
<filter id="filter3_f" x="-8.18896" y="46.7803" width="32.2162" height="115.041" filterUnits="userSpaceOnUse" color-interpolation-filters="sRGB">
<feFlood flood-opacity="0" result="BackgroundImageFix"/>
<feBlend mode="normal" in="SourceGraphic" in2="BackgroundImageFix" result="shape"/>
<feGaussianBlur stdDeviation="5" result="effect1_foregroundBlur"/>
</filter>
<filter id="filter4_d" x="65.8643" y="107.3" width="115.435" height="106.336" filterUnits="userSpaceOnUse" color-interpolation-filters="sRGB">
<feFlood flood-opacity="0" result="BackgroundImageFix"/>
<feColorMatrix in="SourceAlpha" type="matrix" values="0 0 0 0 0 0 0 0 0 0 0 0 0 0 0 0 0 0 127 0"/>
<feOffset dx="1" dy="4"/>
<feGaussianBlur stdDeviation="1.5"/>
<feColorMatrix type="matrix" values="0 0 0 0 0 0 0 0 0 0 0 0 0 0 0 0 0 0 0.77 0"/>
<feBlend mode="normal" in2="BackgroundImageFix" result="effect1_dropShadow"/>
<feBlend mode="normal" in="SourceGraphic" in2="effect1_dropShadow" result="shape"/>
</filter>
<filter id="filter5_d" x="65.1846" y="106.102" width="116.795" height="108.734" filterUnits="userSpaceOnUse" color-interpolation-filters="sRGB">
<feFlood flood-opacity="0" result="BackgroundImageFix"/>
<feColorMatrix in="SourceAlpha" type="matrix" values="0 0 0 0 0 0 0 0 0 0 0 0 0 0 0 0 0 0 127 0"/>
<feOffset dx="1" dy="4"/>
<feGaussianBlur stdDeviation="1.5"/>
<feColorMatrix type="matrix" values="0 0 0 0 0 0 0 0 0 0 0 0 0 0 0 0 0 0 0.77 0"/>
<feBlend mode="normal" in2="BackgroundImageFix" result="effect1_dropShadow"/>
<feBlend mode="normal" in="SourceGraphic" in2="effect1_dropShadow" result="shape"/>
</filter>
<linearGradient id="paint0_linear" x1="165.631" y1="59.3156" x2="15.4851" y2="146.002" gradientUnits="userSpaceOnUse">
<stop stop-color="#FF0000" stop-opacity="0"/>
<stop offset="1" stop-color="#FF5353" stop-opacity="0.47"/>
</linearGradient>
<linearGradient id="paint1_linear" x1="181.191" y1="137.28" x2="181.161" y2="106.389" gradientUnits="userSpaceOnUse">
<stop stop-color="#DD164E"/>
<stop offset="0.1339" stop-color="#D3154A"/>
<stop offset="0.3604" stop-color="#B9123F"/>
<stop offset="0.6518" stop-color="#8D0D2C"/>
<stop offset="0.9938" stop-color="#520713"/>
<stop offset="1" stop-color="#510713"/>
</linearGradient>
</defs>
</svg>
